<svg width="20" height="20" viewBox="0 0 20 20" fill="none" xmlns="http://www.w3.org/2000/svg">
<path fill-rule="evenodd" clip-rule="evenodd" d="M16.1111 12.4242C16.1111 12.0224 16.2574 11.637 16.5179 11.3529C16.7784 11.0687 17.1316 10.9091 17.5 10.9091C17.8684 10.9091 18.2216 11.0687 18.4821 11.3529C18.7426 11.637 18.8889 12.0224 18.8889 12.4242C18.8889 12.8261 18.7426 13.2115 18.4821 13.4956C18.2216 13.7798 17.8684 13.9394 17.5 13.9394C17.1316 13.9394 16.7784 13.7798 16.5179 13.4956C16.2574 13.2115 16.1111 12.8261 16.1111 12.4242ZM7.22222 16.0606H12.7778V14.5455H7.22222V16.0606ZM2.5 13.6364C2.13164 13.6364 1.77837 13.4767 1.51791 13.1926C1.25744 12.9084 1.11111 12.5231 1.11111 12.1212C1.11111 11.7194 1.25744 11.334 1.51791 11.0498C1.77837 10.7657 2.13164 10.6061 2.5 10.6061C2.86836 10.6061 3.22163 10.7657 3.48209 11.0498C3.74256 11.334 3.88889 11.7194 3.88889 12.1212C3.88889 12.5231 3.74256 12.9084 3.48209 13.1926C3.22163 13.4767 2.86836 13.6364 2.5 13.6364ZM5.22222 2.84242C5.3 2.59394 5.51111 2.42424 5.74444 2.42424H14.25C14.4889 2.42424 14.7 2.59394 14.7944 2.89697L16.5167 7.87879H3.48333L5.22222 2.84242ZM20 7.45273V6.9697C20 6.72859 19.9122 6.49736 19.7559 6.32687C19.5996 6.15639 19.3877 6.06061 19.1667 6.06061H18.2611L16.8889 2.09091C16.7076 1.48435 16.3554 0.955687 15.8826 0.580247C15.4098 0.204807 14.8404 0.00174667 14.2556 0H5.73889C4.53889 0.00606061 3.48333 0.848485 3.12778 2.04242L1.73889 6.06061H0.833333C0.61232 6.06061 0.400358 6.15639 0.244078 6.32687C0.0877973 6.49736 0 6.72859 0 6.9697V7.45273C4.65771e-05 7.65957 0.0647519 7.86022 0.183433 8.02153C0.302114 8.18285 0.467674 8.29518 0.652778 8.34L0.9 8.4L0.472222 9.46061C0.165976 10.2146 0.00704512 11.0299 0.00555568 11.8545L0 19.0182C0 19.5576 0.405556 20 0.9 20H2.43333C2.92778 20 3.33333 19.5576 3.33333 19.0182V17.8788H2.5V16.9697H17.5V17.8788H16.6667V19.0182C16.6667 19.5576 17.0722 20 17.5667 20H19.1C19.5944 20 20 19.5576 20 19.0182V11.8667C20 11.0364 19.8389 10.2121 19.5278 9.45455L19.1 8.4L19.3472 8.34C19.5323 8.29518 19.6979 8.18285 19.8166 8.02153C19.9352 7.86022 20 7.65957 20 7.45273Z" fill="black"/>
</svg>
