<svg width="10" height="10" viewBox="0 0 10 10" fill="none" xmlns="http://www.w3.org/2000/svg">
<path d="M5 10C7.76142 10 10 7.76142 10 5C10 2.23858 7.76142 0 5 0C2.23858 0 0 2.23858 0 5C0 7.76142 2.23858 10 5 10Z" fill="#E9BF5B"/>
<path d="M4.24219 7.59375L1.9375 5.28906C1.90625 5.25781 1.90625 5.21094 1.9375 5.17969L2.60156 4.51562C2.63281 4.48437 2.67969 4.48437 2.71094 4.51562L4.29687 6.10156L7.28125 3.11719C7.3125 3.08594 7.35937 3.08594 7.39062 3.11719L8.05469 3.78125C8.08594 3.8125 8.08594 3.85937 8.05469 3.89062L4.35156 7.59375C4.32031 7.625 4.27344 7.625 4.24219 7.59375Z" fill="white"/>
</svg>
