<svg width="70" height="70" viewBox="0 0 70 70" fill="none" xmlns="http://www.w3.org/2000/svg">
<path d="M38.6981 0C32.2484 0 27.0012 5.29135 27.0012 11.7953C27.0012 18.2993 32.2484 23.5906 38.6981 23.5906C45.1478 23.5906 50.395 18.2993 50.395 11.7953C50.395 5.29135 45.1478 0 38.6981 0ZM38.6981 10.6929C40.6658 10.6929 42.1963 12.3465 42.1963 14.2205C42.1963 15.7638 41.2124 17.0867 39.7913 17.6378V18.7402C39.7913 19.4016 39.354 19.8426 38.6981 19.8426C38.1515 19.8426 37.605 19.4016 37.605 18.7402V17.7481C36.1838 17.3071 35.0907 15.9843 35.0907 14.3308C35.0907 13.6693 35.5279 13.2284 36.1838 13.2284C36.8397 13.2284 37.277 13.6693 37.277 14.3308C37.277 15.1024 37.9329 15.7638 38.5888 15.7638C39.2447 15.7638 40.0099 15.1024 40.0099 14.3308C40.0099 13.5591 39.354 13.0079 38.6981 13.0079C36.7304 13.0079 35.2 11.3544 35.2 9.37011C35.2 7.8268 36.2932 6.39372 37.605 5.95277V4.85041C37.605 4.18899 38.1515 3.74804 38.6981 3.74804C39.354 3.74804 39.7913 4.18899 39.7913 4.85041V5.95277C41.2124 6.39372 42.3056 7.71656 42.3056 9.37011C42.3056 10.0315 41.8683 10.4725 41.2124 10.4725C40.5565 10.4725 40.1192 10.0315 40.1192 9.37011C40.1192 8.59845 39.4633 8.04727 38.6981 8.04727C37.9329 8.04727 37.3863 8.70869 37.3863 9.37011C37.277 10.0315 37.9329 10.6929 38.6981 10.6929Z" fill="#E9BF5B"/>
<path d="M67.6672 37.8115C67.2299 37.1501 66.4647 36.4887 65.2622 35.8272C65.3715 35.4965 65.4809 35.1658 65.4809 34.7249V28.5516C65.4809 26.6776 63.8411 25.2445 61.3268 24.2524C58.9218 23.2603 55.6423 22.8193 52.4722 22.8193C45.9131 22.8193 39.3541 24.8036 39.3541 28.5516V34.7249C39.3541 36.2682 40.4473 37.591 42.3057 38.4729C42.1964 38.8036 42.087 39.2446 42.087 39.5753V45.7485C42.087 49.4966 48.6461 51.4808 55.2051 51.4808C61.7641 51.4808 68.3231 49.4966 68.3231 45.7485V39.5753C68.2138 39.0241 68.1045 38.3627 67.6672 37.8115ZM41.5405 28.5516C41.5405 27.1186 45.8038 25.0241 52.4722 25.0241C59.1405 25.0241 63.4038 27.1186 63.4038 28.5516C63.4038 29.9847 59.1405 32.0792 52.4722 32.0792C45.8038 32.0792 41.5405 29.9847 41.5405 28.5516ZM55.2051 43.1029C48.5367 43.1029 44.2734 41.0084 44.2734 39.5753C44.2734 39.4651 44.2734 39.4651 44.2734 39.3548C46.569 40.1265 49.5206 40.4572 52.3628 40.4572C56.9541 40.4572 61.5455 39.4651 63.9504 37.591C65.2622 38.2525 66.0274 38.9139 66.0274 39.5753C66.0274 41.0084 61.8734 43.1029 55.2051 43.1029Z" fill="#E9BF5B"/>
<path d="M28.969 30.6461C28.969 30.0949 28.8597 29.4335 28.4224 28.8823C27.9851 28.2209 27.2199 27.5595 26.0174 26.8981C26.1267 26.5673 26.2361 26.2366 26.2361 25.7957V19.6224C26.2361 17.7484 24.5963 16.3153 22.082 15.3232C19.677 14.3311 16.3975 13.8901 13.118 13.8901C6.55901 13.8901 0 15.8744 0 19.6224V25.7957C0 27.339 1.09317 28.6618 2.95156 29.5437C2.84224 29.8744 2.73292 30.2051 2.73292 30.6461V36.8193C2.73292 40.5674 9.29193 42.5516 15.8509 42.5516C22.41 42.5516 28.969 40.5674 28.969 36.8193V30.6461ZM2.18634 19.6224C2.18634 18.1894 6.4497 16.0949 13.118 16.0949C19.7864 16.0949 24.0497 18.1894 24.0497 19.6224C24.0497 21.0555 19.7864 23.15 13.118 23.15C6.4497 23.15 2.18634 21.0555 2.18634 19.6224ZM15.8509 34.1737C9.18262 34.1737 4.91926 32.0792 4.91926 30.6461C4.91926 30.5359 4.91926 30.5359 5.02858 30.4256C7.32423 31.1973 10.2758 31.6382 13.118 31.6382C17.7093 31.6382 22.3006 30.6461 24.7056 28.7721C26.0174 29.4335 26.7826 30.0949 26.7826 30.7563C26.7826 32.0792 22.5193 34.1737 15.8509 34.1737Z" fill="#E9BF5B"/>
<path d="M69.7443 59.4172C69.307 60.74 68.3232 61.7322 67.1207 62.3936L66.6834 62.6141C56.2983 67.4645 45.148 69.9999 33.779 69.9999C30.1716 69.9999 26.4548 69.7794 22.8474 69.2283L14.5393 68.0157L4.91938 69.6692C4.81007 69.6692 4.81007 69.6692 4.70075 69.6692C4.15417 69.6692 3.7169 69.3385 3.60758 68.7873C3.49826 68.2361 3.93553 67.5747 4.48212 67.5747L13.1181 66.1416L10.0573 51.9211L1.63988 53.6849C1.09329 53.7951 0.437391 53.4644 0.328074 52.803C0.218757 52.2518 0.546708 51.5904 1.09329 51.4802L10.4945 49.3857L20.1144 43.8738H20.2237C24.5964 41.8896 29.7343 43.2124 32.7952 46.9605L42.9617 50.1573C45.148 50.8188 46.4598 52.9132 46.1319 55.118C46.0225 55.4487 45.9132 55.7794 45.8039 56.1101L64.3878 52.803H64.4971C66.4648 52.6928 68.3232 53.6849 69.307 55.4487C70.0723 56.6613 70.1816 58.0944 69.7443 59.4172Z" fill="#E9BF5B"/>
</svg>
