<svg width="31" height="31" viewBox="0 0 31 31" fill="none" xmlns="http://www.w3.org/2000/svg">
<path fill-rule="evenodd" clip-rule="evenodd" d="M31 7.75C31 3.47045 27.5295 0 23.25 0C18.5163 0 12.4837 0 7.75 0C3.47045 0 0 3.47045 0 7.75C0 12.4837 0 18.5163 0 23.25C0 27.5295 3.47045 31 7.75 31C12.4837 31 18.5163 31 23.25 31C27.5295 31 31 27.5295 31 23.25C31 18.5163 31 12.4837 31 7.75Z" fill="url(#paint0_radial_124_33)"/>
<path d="M20.0849 4.65755C23.326 4.68855 26.3097 7.4708 26.3423 10.9149C26.3531 13.9715 26.3531 17.0281 26.3423 20.0847C26.3113 23.3134 23.529 26.3095 20.0849 26.3421C17.0283 26.3529 13.9717 26.3529 10.9151 26.3421C7.67255 26.3111 4.69035 23.5288 4.6578 20.0847C4.64695 17.0281 4.64695 13.9715 4.6578 10.9149C4.68725 7.67075 7.4633 4.6901 10.9151 4.65755C13.9717 4.6467 17.0283 4.6467 20.0849 4.65755ZM10.957 6.1223C8.44135 6.13005 6.14735 8.3109 6.12255 10.9242C6.11325 13.9746 6.11325 17.025 6.12255 20.0754C6.1458 22.5632 8.27395 24.8525 10.9244 24.8773C13.9748 24.8866 17.0252 24.8866 20.0756 24.8773C22.5696 24.854 24.8527 22.7259 24.8775 20.0754C24.8868 17.025 24.8868 13.9746 24.8775 10.9242C24.8543 8.4194 22.6843 6.1471 20.0756 6.1223C17.0361 6.113 13.9965 6.1223 10.957 6.1223Z" fill="white"/>
<path d="M15.5374 10.0752C18.0453 10.0984 20.3827 12.0328 20.8415 14.5113C21.1686 16.2783 20.5517 18.1941 19.2497 19.4372C17.8004 20.8167 15.5576 21.3096 13.6356 20.6059C11.4873 19.82 9.97602 17.5555 10.0768 15.2615C10.1992 12.5211 12.6203 10.0845 15.5002 10.0752C15.5126 10.0752 15.525 10.0752 15.5374 10.0752ZM15.4754 11.543C13.6852 11.5601 11.9972 12.9179 11.6252 14.6818C11.2486 16.4658 12.2747 18.4452 13.9595 19.1566C15.7994 19.9347 18.1755 19.0621 19.0637 17.2455C19.9828 15.3684 19.1164 12.8187 17.1758 11.9119C16.6472 11.6655 16.0598 11.5415 15.4754 11.543Z" fill="white"/>
<path fill-rule="evenodd" clip-rule="evenodd" d="M22.4749 9.65175C22.4749 9.3526 22.3556 9.06585 22.1448 8.85505C21.934 8.64425 21.6472 8.5249 21.3481 8.5249C21.3248 8.5249 21.3 8.5249 21.2768 8.5249C20.9776 8.5249 20.6909 8.64425 20.4801 8.85505C20.2693 9.06585 20.1499 9.3526 20.1499 9.65175C20.1499 9.66415 20.1499 9.675 20.1499 9.6874C20.1499 9.99585 20.2724 10.2919 20.4909 10.5089C20.7079 10.7275 21.004 10.8499 21.3124 10.8499C21.9541 10.8499 22.4749 10.3291 22.4749 9.6874C22.4749 9.675 22.4749 9.66415 22.4749 9.65175Z" fill="white"/>
<defs>
<radialGradient id="paint0_radial_124_33" cx="0" cy="0" r="1" gradientUnits="userSpaceOnUse" gradientTransform="translate(0 30.225) scale(43.2961)">
<stop stop-color="#FF8100"/>
<stop offset="0.19" stop-color="#FF7209"/>
<stop offset="0.32" stop-color="#F55E16"/>
<stop offset="0.48" stop-color="#D92938"/>
<stop offset="1" stop-color="#9100FF"/>
</radialGradient>
</defs>
</svg>
