<svg width="24" height="24" viewBox="0 0 24 24" fill="none" xmlns="http://www.w3.org/2000/svg">
<path d="M23.2562 20.4234L17.5714 15.5884C16.9837 15.0595 16.3552 14.8167 15.8475 14.8401C17.1894 13.2682 18.0001 11.2289 18.0001 9.00002C18.0001 4.02943 13.9706 0 9.00003 0C4.02948 0 0 4.02943 0 9.00002C0 13.9706 4.02943 18 9.00003 18C11.2289 18 13.2682 17.1894 14.8401 15.8474C14.8167 16.3551 15.0595 16.9836 15.5884 17.5713L20.4234 23.2561C21.2513 24.176 22.6036 24.2535 23.4285 23.4286C24.2535 22.6036 24.176 21.2513 23.2562 20.4234ZM9.00003 15C5.68633 15 3.00001 12.3137 3.00001 9.00002C3.00001 5.68633 5.68633 3.00001 9.00003 3.00001C12.3137 3.00001 15 5.68633 15 9.00002C15 12.3137 12.3138 15 9.00003 15Z" fill="white"/>
</svg>
