<svg width="64" height="90" viewBox="0 0 64 90" fill="none" xmlns="http://www.w3.org/2000/svg">
<path d="M33.4353 41.5068C33.4353 42.5961 32.9658 43.5752 32.2226 44.261C33.6588 44.174 35.0196 43.9599 36.2967 43.6359L33.9137 47.154L41.5914 52.3542C41.4655 51.9893 41.3946 51.6046 41.3863 51.2079C41.3841 51.092 41.3878 50.9773 41.3957 50.8633L35.4759 46.8536L42.2049 36.9189L48.0771 40.896C48.2545 40.5547 48.4206 40.2146 48.5758 39.8749L46.6188 38.5493C46.6597 38.468 46.6987 38.3851 46.7403 38.3041C46.7249 37.9434 46.7212 37.5827 46.714 37.2219C47.377 36.481 47.9743 35.7216 48.5106 34.9604C48.7228 36.1832 48.9163 37.4417 49.0685 38.7136C49.8301 36.7412 50.2212 34.7992 50.2328 32.8969C50.2336 30.5623 49.6126 28.9641 49.3453 28.3848C49.2748 28.2333 49.2264 28.1429 49.2076 28.1096C48.151 26.3899 48.6921 24.0845 50.4286 22.9967C51.0263 22.6221 51.7133 22.4237 52.4156 22.4237C53.7187 22.4237 54.9073 23.0818 55.5977 24.1843C55.9543 24.758 57.7268 27.8628 57.7324 32.901C57.7463 36.0017 57.0395 40.233 54.3306 45.1317L54.778 45.4351L48.0497 55.3698L46.7718 54.504C46.3199 54.7237 45.8257 54.8497 45.3101 54.8733L46.8509 55.9169C46.2348 59.1301 45.7713 62.9684 45.7661 67.2596C45.7646 73.1487 46.6507 79.8964 49.2609 86.9393C49.961 88.8299 51.7526 89.9995 53.6575 89.9999C54.1979 89.9999 54.7472 89.9054 55.2842 89.707C57.7122 88.8071 58.9511 86.111 58.0519 83.683C55.8812 77.8235 55.1406 72.2172 55.1398 67.26C55.1383 61.9627 55.9944 57.4194 56.8434 54.2445C56.99 53.6955 57.1355 53.1908 57.2768 52.7269C59.6441 52.127 61.789 50.5224 62.5813 46.4449C63.551 38.1147 63.0024 33.1909 60.4506 25.6261C58.5626 20.1352 53.9223 18.3968 50.7211 19.1952C49.0929 19.6009 47.9301 20.9572 47.3208 22.6821C46.5809 24.2791 45.7878 26.6138 45.0878 29.0849C44.7244 29.7745 44.3078 30.482 43.8323 31.1791C42.5705 33.045 40.924 34.8273 38.8192 36.1296C36.8858 37.3198 34.5647 38.141 31.5833 38.2782C32.6891 38.9303 33.4353 40.1318 33.4353 41.5068Z" fill="#E9BF5B"/>
<path d="M46.6201 18.3416C51.1571 17.285 53.9786 12.7509 52.9221 8.21425C51.8657 3.67764 47.3312 0.856507 42.7942 1.91308C38.2572 2.96965 35.4357 7.50383 36.4921 12.0404C37.5486 16.5771 42.083 19.3982 46.6201 18.3416Z" fill="#E9BF5B"/>
<path d="M43.0421 40.5229L38.9172 46.4292L39.5318 46.8584L43.6567 40.9521L43.0421 40.5229Z" fill="#E9BF5B"/>
<path d="M45.6661 42.3067L41.5403 48.2126L42.1557 48.6426L46.2815 42.7367L45.6661 42.3067Z" fill="#E9BF5B"/>
<path d="M56.9828 32.9022C56.9768 27.9168 55.1562 24.8952 54.962 24.5821C54.0823 23.1778 52.231 22.7522 50.8271 23.6316C49.4303 24.5064 49.0021 26.3423 49.8627 27.744C49.8634 27.7447 49.8634 27.7455 49.8642 27.7466C49.8848 27.7826 49.9425 27.888 50.0269 28.0706C50.3464 28.7635 50.9842 30.4521 50.9835 32.9018C50.9606 36.5571 49.6504 42.0667 42.9728 49.0533C41.8242 50.248 41.8625 52.1469 43.0579 53.295C43.6388 53.8538 44.3872 54.1316 45.1349 54.1316C45.9231 54.1316 46.7102 53.823 47.2997 53.2099C54.8488 45.3901 57.0064 38.1519 56.9828 32.9022Z" fill="#E9BF5B"/>
<path d="M26.5377 12.0414C27.5942 7.50475 24.7727 2.97057 20.2357 1.914C15.6987 0.857428 11.1642 3.67856 10.1077 8.21518C9.05127 12.7518 11.8728 17.286 16.4098 18.3425C20.9468 19.3991 25.4813 16.578 26.5377 12.0414Z" fill="#E9BF5B"/>
<path d="M5.75276 52.7262C6.70708 55.8711 7.89876 61.0481 7.89051 67.2596C7.88901 72.2157 7.14805 77.8232 4.97917 83.6833C4.07997 86.1109 5.3189 88.8078 7.74689 89.7066C8.28386 89.9054 8.83358 89.9995 9.3743 89.9995C11.2792 89.9995 13.0705 88.8295 13.7702 86.9385C16.3782 79.8953 17.2657 73.1483 17.265 67.2596C17.2526 57.8679 15.0481 50.6443 13.8564 47.4101C13.5621 45.2082 13.5846 42.8804 13.7773 40.5604C12.0839 39.2506 10.6121 37.6809 9.44255 35.908C6.77232 31.8353 6.23085 27.9262 6.12173 26.4353L6.11798 26.3805C6.02274 24.2784 7.62653 22.522 9.69266 22.4282C9.74966 22.4256 9.80778 22.4241 9.86403 22.4241C11.8717 22.4241 13.5156 23.9968 13.6078 26.0037C13.6093 26.0183 13.6138 26.0704 13.6217 26.1435C13.6393 26.3048 13.6738 26.565 13.7353 26.8995C13.8527 27.5235 14.0882 28.498 14.5408 29.5873C14.7568 30.1022 15.0042 30.5825 15.2675 31.0464C15.4703 30.0414 15.668 29.0811 15.8423 28.1909C16.9181 24.4588 15.5105 19.992 12.31 19.1944C9.10882 18.3961 4.46845 20.1349 2.58043 25.6253C0.0286982 33.1901 -0.519897 38.114 0.4498 46.4442C1.24213 50.5209 3.38589 52.1258 5.75276 52.7262Z" fill="#E9BF5B"/>
<path d="M12.9989 27.0369C12.9329 26.6818 12.8965 26.404 12.8766 26.2281C12.8672 26.1411 12.862 26.0796 12.8597 26.0463L12.859 26.0388C12.7836 24.384 11.3812 23.103 9.72679 23.1777C8.07164 23.2527 6.79071 24.6551 6.86608 26.3102H6.86458C6.89308 26.6076 7.07344 30.9277 10.0695 35.4965C11.5687 37.77 13.8163 40.078 17.0205 41.7654C20.2165 43.4558 24.3165 44.5084 29.4323 44.5084C29.4402 44.5084 29.4477 44.5084 29.4559 44.5084C29.5467 44.5084 29.6228 44.5076 29.6866 44.5076C31.3425 44.5076 32.6856 43.1648 32.6856 41.5078C32.6856 39.8511 31.3425 38.5087 29.6866 38.5087C29.5943 38.5079 29.5174 38.5087 29.4559 38.5087C25.1328 38.5053 22.0655 37.6414 19.8216 36.4598C16.476 34.6858 14.7924 32.1194 13.8497 29.8763C13.3858 28.7622 13.1324 27.7472 12.9989 27.0369Z" fill="#E9BF5B"/>
</svg>
