<svg width="70" height="71" viewBox="0 0 70 71" fill="none" xmlns="http://www.w3.org/2000/svg">
<path d="M68.9641 14.4392C61.7131 14.4392 55.8315 8.54744 55.8315 1.28387C55.8315 0.861778 55.849 0.422096 55.9017 0H14.783C14.8182 0.422096 14.8357 0.844191 14.8357 1.28387C14.8357 3.11296 14.467 4.87169 13.7823 6.45455C11.7808 11.1679 7.11061 14.4568 1.68548 14.4568C1.10609 14.4568 0.561826 14.4216 0 14.3513C0.228242 20.5947 1.21144 26.592 2.87936 32.2376C4.86331 39.0263 7.81289 45.2873 11.535 50.8098C17.5922 59.7969 25.686 66.8494 35.0088 71C54.8131 62.1712 69.0695 40.2925 70 14.404C69.6489 14.4216 69.3153 14.4392 68.9641 14.4392ZM58.3597 35.0691H35.0263V62.734C35.0263 62.734 35.0263 62.734 35.0088 62.734C28.2844 59.0758 22.3326 53.571 17.68 46.6416C15.2746 43.0713 13.2556 39.1845 11.6579 35.0691H35.0263V7.40426H49.3529C51.2842 13.5598 56.0246 18.4843 62.0642 20.6475C61.3795 25.6423 60.1329 30.4964 58.3597 35.0691Z" fill="#E9BF5B"/>
</svg>
