<svg width="90" height="81" viewBox="0 0 90 81" fill="none" xmlns="http://www.w3.org/2000/svg">
<path d="M64.9163 18.5059C67.4866 17.9946 70.1513 18.2569 72.5725 19.2598C74.9935 20.2627 77.0629 21.9608 78.5188 24.1396C79.9747 26.3186 80.7521 28.8804 80.7522 31.501C80.7522 35.0152 79.3562 38.3862 76.8713 40.8711C74.3864 43.356 71.0154 44.752 67.5012 44.752C64.8807 44.7519 62.3188 43.9745 60.1399 42.5186C57.961 41.0627 56.2629 38.9933 55.26 36.5723C54.2571 34.1511 53.9948 31.4863 54.5061 28.916C55.0174 26.3458 56.2791 23.9849 58.1321 22.1318C59.9851 20.2788 62.3461 19.0172 64.9163 18.5059ZM68.428 26.8428C67.5067 26.6596 66.5517 26.7529 65.6838 27.1123C64.8159 27.4718 64.074 28.0812 63.552 28.8623C63.0301 29.6434 62.7513 30.5616 62.7512 31.501C62.7512 32.7608 63.252 33.9695 64.1428 34.8604C65.0336 35.751 66.2416 36.2509 67.5012 36.251C68.4407 36.251 69.3597 35.9731 70.1409 35.4512C70.9219 34.9293 71.5304 34.1871 71.8899 33.3193C72.2494 32.4514 72.3437 31.4956 72.1604 30.5742C71.9771 29.653 71.5247 28.8068 70.8606 28.1426C70.1963 27.4783 69.3494 27.0261 68.428 26.8428Z" fill="white" stroke="#E9BF5B" stroke-width="0.5"/>
<path d="M21.2461 41.4248C27.1899 40.1156 33.4027 40.8724 38.8584 43.5703C44.3142 46.2683 48.6873 50.7462 51.2549 56.2646L51.4062 56.5908L51.6582 56.335C53.7316 54.2433 56.2004 52.5847 58.9199 51.4541C61.4694 50.3943 64.1922 49.8183 66.9492 49.7549L67.501 49.749C73.4022 49.749 79.0626 52.0938 83.2354 56.2666C87.4079 60.4393 89.752 66.099 89.752 72V80.75H0.25V67.5L0.256836 66.9297C0.393111 61.0457 2.46718 55.3649 6.16504 50.7725C9.98227 46.0318 15.3021 42.7341 21.2461 41.4248ZM67.501 58.249C63.8544 58.2491 60.3569 59.6979 57.7783 62.2764C55.1996 64.855 53.751 68.3532 53.751 72V72.25H81.252V72C81.252 68.3532 79.8033 64.855 77.2246 62.2764C74.6459 59.6977 71.1477 58.249 67.501 58.249Z" fill="white" stroke="#E9BF5B" stroke-width="0.5"/>
<path d="M27.0002 0.25C36.8034 0.25 44.751 8.19691 44.7512 18C44.7512 27.8033 36.8035 35.751 27.0002 35.751C17.1972 35.7508 9.25024 27.8031 9.25024 18C9.25045 8.19704 17.1973 0.250203 27.0002 0.25Z" fill="white" stroke="#E9BF5B" stroke-width="0.5"/>
</svg>
