<svg width="112" height="79" viewBox="0 0 112 79" fill="none" xmlns="http://www.w3.org/2000/svg">
<path d="M92.8484 28.5928C93.4429 29.0797 94.0121 29.5976 94.5525 30.1436C92.3034 30.7608 90.5118 32.4721 89.7732 34.668L87.4753 35.501C87.9608 32.3861 90.0374 29.7994 92.8484 28.5928Z" fill="white" stroke="#E9BF5B" stroke-width="0.5"/>
<path d="M21.3024 28.1406C26.2974 28.1406 30.3414 32.191 30.3414 37.1865C30.3414 42.1821 26.2975 46.2324 21.3024 46.2324C16.3071 46.2324 12.2565 42.1818 12.2565 37.1865C12.2565 32.1913 16.3071 28.1407 21.3024 28.1406ZM21.3024 30.1748C17.4305 30.1749 14.2907 33.3149 14.2906 37.1865C14.2906 41.0582 17.4307 44.1992 21.3024 44.1992C25.1744 44.1992 28.3073 41.0579 28.3073 37.1865C28.3072 33.315 25.1744 30.1748 21.3024 30.1748Z" fill="white" stroke="#E9BF5B" stroke-width="0.5"/>
<path d="M78.4679 23.4717C82.9784 23.4153 87.4642 24.837 91.1974 27.3643C88.0193 29.1039 85.8061 32.3827 85.5616 36.2021L77.2257 39.2324C70.4325 39.3559 64.0906 39.4926 57.1154 39.6309C59.2397 32.5038 64.9429 26.4346 72.1749 24.4277L72.1808 24.4268C74.2202 23.8123 76.327 23.4852 78.4659 23.4717H78.4679Z" fill="white" stroke="#E9BF5B" stroke-width="0.5"/>
<mask id="path-4-inside-1_141_24" fill="white">
<path d="M111.813 32.1603C111.765 30.0945 111.815 28.0266 111.673 25.9653C111.616 25.1482 111.6 24.2177 111.393 23.5224C111.32 23.2782 111.086 23.0394 110.924 22.8434C110.774 22.6629 110.479 22.6288 110.455 22.3954C110.361 21.5077 110.351 20.5803 110.308 19.6725C110.28 19.0867 110.313 18.4992 110.265 17.9154C110.26 17.9546 110.249 17.9961 110.237 18.0344C110.178 18.2257 109.96 18.3262 109.867 18.5034C109.767 18.6916 109.713 18.9026 109.677 19.1125C109.608 19.5217 109.61 19.944 109.628 20.3584C109.648 20.7918 109.763 21.2138 109.796 21.6464C109.818 21.9194 109.929 22.222 109.817 22.4725C109.734 22.6602 109.538 22.793 109.348 22.8714C108.978 23.0242 108.549 23.0123 108.151 22.9624C107.741 22.9111 107.33 22.7758 106.975 22.5634C106.277 22.1452 105.762 21.4761 105.19 20.8973C104.252 19.948 103.301 19.0005 102.495 17.9362C102.289 17.6645 102.015 17.404 101.956 17.0682C101.906 16.7764 101.967 16.4419 102.138 16.2002C102.468 15.7361 103.081 15.5571 103.594 15.3112C104.201 15.0202 104.841 14.7722 105.498 14.6253C105.974 14.5189 106.467 14.4887 106.954 14.4853C107.425 14.4822 107.908 14.4752 108.361 14.6042C108.775 14.7221 109.204 14.8883 109.509 15.1922C109.55 15.2326 109.588 15.2789 109.621 15.3253C109.32 14.6103 108.869 13.9806 108.424 13.3442C108.338 13.3127 107.358 12.9491 106.814 12.8192C106.421 12.7253 105.687 12.7282 105.687 12.7282C105.687 12.7282 104.737 11.3515 104.21 10.7053C103.569 9.91972 102.892 9.16574 102.166 8.45835C101.375 7.68779 100.537 6.95754 99.653 6.2954C98.7794 5.64064 96.909 4.51034 96.909 4.51034L98.449 3.74739C98.2199 3.49405 98.535 2.83706 98.2949 2.54339C98.1128 2.32051 97.8084 2.32051 97.4269 2.31245C96.3943 2.29027 95.4266 2.2345 94.396 2.1655C93.075 2.07702 91.7673 1.86938 90.4549 1.69645C89.1537 1.52486 87.8605 1.27264 86.5559 1.1295C83.8572 0.833374 81.1477 0.650813 78.4359 0.520445C75.4655 0.377757 72.4833 0.425469 69.5109 0.331388C68.3994 0.29622 67.2895 0.249628 66.1789 0.191388C65.1924 0.139644 64.2121 -0.0211868 63.2247 0.00233321C63.0384 0.274046 62.8352 0.387388 62.5949 0.471389C61.8129 0.744221 61.0954 0.869887 60.1799 0.982335C58.7806 1.15437 57.2735 1.43862 55.8959 1.73834C54.1337 2.1216 52.4042 2.64039 50.6879 3.19434C49.1331 3.6961 47.5974 4.26058 46.0889 4.88823C44.654 5.48541 43.2457 6.15652 41.8609 6.86212C40.6813 7.46311 39.5251 8.10756 38.3889 8.78718C37.2228 9.48449 36.0775 10.2208 34.959 10.9922C33.6784 11.8755 32.4406 12.8096 31.207 13.7573C30.4918 14.3068 29.7705 14.856 29.0929 15.4512C28.6357 15.853 28.6796 15.9169 28.0849 16.3192C27.6291 16.6274 27.0722 16.5835 26.559 16.3402C26.0458 16.097 25.194 15.5912 25.194 15.5912C25.194 15.5912 26.2163 14.8269 27.0209 14.2682C27.0061 14.2705 26.9855 14.2803 26.9719 14.2821C26.4605 14.3527 25.8023 14.1621 25.2919 14.0861C24.9818 14.04 24.6597 14.0268 24.3468 14.044C23.6661 14.0819 22.9994 14.2405 22.3308 14.3731C19.0357 15.0267 15.7423 15.7305 12.5169 16.6691C10.1931 17.3453 7.89307 18.121 5.66382 19.0632C4.92238 19.3766 4.17108 19.6924 3.50782 20.1483C2.8963 20.5687 2.32487 21.0653 1.86276 21.6464C1.42663 22.1947 1.12535 22.8466 0.826758 23.4805C0.548101 24.0721 0.256005 24.6666 0.126757 25.3074C-0.0743955 26.3051 0.0225966 27.3418 0.0286446 28.3594C0.0353646 29.4559 0.0680687 30.5582 0.175589 31.6495C0.285797 32.7684 0.448645 33.7392 0.497477 34.8626C0.507781 35.0976 0.503749 35.4813 0.406533 35.6957C0.333285 35.8569 0.317829 35.8903 0.266533 36.0597C0.220389 36.2124 0.294757 36.382 0.357477 36.5287C0.507781 36.88 0.745446 37.1967 1.01559 37.4668C1.15066 37.6019 1.34577 37.6646 1.48465 37.7959C1.68692 37.9874 1.80452 38.258 2.00254 38.454C2.42321 38.8698 2.88465 39.2593 3.40948 39.5319C4.15182 39.9174 4.98756 40.104 5.8036 40.2879C6.68235 40.4859 7.58686 40.5849 8.48466 40.6588C9.10872 40.7104 9.63848 40.7773 10.3607 40.7079C10.877 40.6983 10.795 40.7027 11.2636 40.694C10.881 39.5973 10.6687 38.4144 10.6687 37.1871C10.6687 31.3169 15.4314 26.5609 21.3017 26.5609C27.1721 26.5609 31.9279 31.3167 31.9279 37.1871C31.9279 38.2683 31.7659 39.3122 31.466 40.2951C31.8018 40.2892 31.7368 40.2942 32.0959 40.2881C36.682 40.2323 40.7414 40.1685 44.5839 40.1062C44.9974 37.5921 45.6931 35.1245 46.6839 32.7633C49.6532 25.2649 55.484 19.0858 62.581 15.3262C62.0438 15.3495 59.3061 15.4727 57.73 15.5923C54.5161 15.8358 51.3077 16.1662 48.1049 16.5304C46.8976 16.6677 44.675 16.8384 44.675 16.8384C44.675 16.8384 44.6862 15.9577 44.563 15.5435C44.4392 15.1275 43.954 14.3955 43.954 14.3955L45.802 6.95441C45.802 6.95441 47.8814 6.05057 48.9519 5.68746C50.6131 5.1241 52.3132 4.68596 54.0199 4.28052C55.7427 3.87104 57.4836 3.50704 59.2348 3.24451C60.6039 3.03933 61.9849 2.93405 63.365 2.82451C64.1931 2.75866 65.85 2.68451 65.85 2.68451C65.85 2.68451 65.1032 6.82762 64.6319 8.87947C64.1561 10.9517 63.0847 14.7922 62.994 15.1165C65.2269 13.9708 67.5757 13.064 70.001 12.4285L70.9669 2.65651C70.9669 2.65651 73.1421 2.65965 74.2288 2.70557C75.7961 2.77165 77.3632 2.89574 78.9258 3.03462C80.525 3.17686 82.1243 3.32672 83.7138 3.55251C84.8703 3.71693 86.0739 3.92211 87.1648 4.16157C87.4262 4.21891 87.7917 4.38423 87.8018 4.65168C87.8634 6.29719 87.8735 7.8634 87.8928 9.46769C87.9029 10.3113 87.9111 11.5715 87.9138 12.6317C89.3799 13.0474 90.8187 13.5685 92.2189 14.1717L90.616 5.05063C90.616 5.05063 92.1374 5.41911 92.8698 5.68769C93.8955 6.06356 94.9091 6.49364 95.8517 7.04557C97.0309 7.73594 98.1356 8.56654 99.1627 9.46747C99.8616 10.0806 100.594 10.6952 101.088 11.4835C101.524 12.1806 101.301 12.1492 100.661 12.4494C99.3289 13.0745 97.8456 13.3156 96.4117 13.6464C95.1909 13.928 93.1021 14.2606 92.6037 14.3395C96.0762 15.8849 99.3013 17.9835 102.089 20.5624C106.367 24.4302 109.491 29.4281 111.301 34.8704C111.566 34.5766 111.849 34.2786 111.952 33.9046C112.106 33.343 111.843 33.4707 111.813 32.1603ZM14.5824 19.8192C13.9328 20.4762 13.1497 20.9806 12.4264 21.5552C11.4141 22.3594 10.4447 23.2238 9.37439 23.9493C8.91003 24.264 8.44053 24.5844 7.91838 24.7893C7.45538 24.971 6.95451 25.0465 6.46238 25.1184C5.54667 25.2519 4.62267 25.32 3.69732 25.3074C3.36715 25.3029 2.98836 25.3943 2.71038 25.2165C2.52714 25.0993 2.51975 24.8171 2.38132 24.6495C2.16964 24.3928 1.89412 24.1874 1.62532 23.9914C1.4777 23.8839 1.18785 23.8911 1.15626 23.7114C1.06218 23.1745 1.81818 22.841 2.19226 22.4445C2.54193 22.074 2.84433 21.6002 3.31921 21.4154C3.53806 21.3303 3.79073 21.4694 4.01921 21.4154C4.59825 21.2788 5.06798 20.8505 5.61521 20.6175C6.30289 20.3248 7.01947 20.0956 7.72933 19.8615C8.44389 19.6259 9.15979 19.3752 9.89227 19.2034C10.541 19.0513 11.198 18.957 11.8592 18.8744C12.4201 18.8045 12.9884 18.7579 13.5531 18.7344C13.8266 18.7229 14.1232 18.6434 14.4001 18.6362C14.5663 18.632 14.7275 18.651 14.8691 18.7344C15.008 18.8161 15.1128 19.0007 15.1001 19.1613C15.0783 19.4388 14.7782 19.621 14.5824 19.8192ZM43.0094 13.6872C43.0094 13.6872 42.2352 13.5091 41.8614 13.5472C41.5404 13.5799 40.9524 13.7721 40.5243 13.9952C40.1509 14.1898 39.7018 14.477 39.3763 14.7442C39.0255 15.0323 38.623 15.5459 38.4593 15.9693C38.2214 16.5837 38.4593 17.7474 38.4593 17.7474C38.4593 17.7474 37.5297 17.8316 36.9334 17.8944C36.3402 17.9569 35.1483 18.0344 35.1483 18.0344C35.1483 18.0344 35.7271 15.6288 36.1353 14.4642C36.4112 13.6769 37.1222 12.1613 37.1222 12.1613C37.1222 12.1613 37.9945 11.3114 38.4801 10.9432C39.411 10.238 40.4246 9.64196 41.4412 9.06718C42.5072 8.46439 44.7241 7.42212 44.7241 7.42212C44.2268 9.45739 43.5114 11.653 43.0094 13.6872Z"/>
</mask>
<path d="M111.813 32.1603C111.765 30.0945 111.815 28.0266 111.673 25.9653C111.616 25.1482 111.6 24.2177 111.393 23.5224C111.32 23.2782 111.086 23.0394 110.924 22.8434C110.774 22.6629 110.479 22.6288 110.455 22.3954C110.361 21.5077 110.351 20.5803 110.308 19.6725C110.28 19.0867 110.313 18.4992 110.265 17.9154C110.26 17.9546 110.249 17.9961 110.237 18.0344C110.178 18.2257 109.96 18.3262 109.867 18.5034C109.767 18.6916 109.713 18.9026 109.677 19.1125C109.608 19.5217 109.61 19.944 109.628 20.3584C109.648 20.7918 109.763 21.2138 109.796 21.6464C109.818 21.9194 109.929 22.222 109.817 22.4725C109.734 22.6602 109.538 22.793 109.348 22.8714C108.978 23.0242 108.549 23.0123 108.151 22.9624C107.741 22.9111 107.33 22.7758 106.975 22.5634C106.277 22.1452 105.762 21.4761 105.19 20.8973C104.252 19.948 103.301 19.0005 102.495 17.9362C102.289 17.6645 102.015 17.404 101.956 17.0682C101.906 16.7764 101.967 16.4419 102.138 16.2002C102.468 15.7361 103.081 15.5571 103.594 15.3112C104.201 15.0202 104.841 14.7722 105.498 14.6253C105.974 14.5189 106.467 14.4887 106.954 14.4853C107.425 14.4822 107.908 14.4752 108.361 14.6042C108.775 14.7221 109.204 14.8883 109.509 15.1922C109.55 15.2326 109.588 15.2789 109.621 15.3253C109.32 14.6103 108.869 13.9806 108.424 13.3442C108.338 13.3127 107.358 12.9491 106.814 12.8192C106.421 12.7253 105.687 12.7282 105.687 12.7282C105.687 12.7282 104.737 11.3515 104.21 10.7053C103.569 9.91972 102.892 9.16574 102.166 8.45835C101.375 7.68779 100.537 6.95754 99.653 6.2954C98.7794 5.64064 96.909 4.51034 96.909 4.51034L98.449 3.74739C98.2199 3.49405 98.535 2.83706 98.2949 2.54339C98.1128 2.32051 97.8084 2.32051 97.4269 2.31245C96.3943 2.29027 95.4266 2.2345 94.396 2.1655C93.075 2.07702 91.7673 1.86938 90.4549 1.69645C89.1537 1.52486 87.8605 1.27264 86.5559 1.1295C83.8572 0.833374 81.1477 0.650813 78.4359 0.520445C75.4655 0.377757 72.4833 0.425469 69.5109 0.331388C68.3994 0.29622 67.2895 0.249628 66.1789 0.191388C65.1924 0.139644 64.2121 -0.0211868 63.2247 0.00233321C63.0384 0.274046 62.8352 0.387388 62.5949 0.471389C61.8129 0.744221 61.0954 0.869887 60.1799 0.982335C58.7806 1.15437 57.2735 1.43862 55.8959 1.73834C54.1337 2.1216 52.4042 2.64039 50.6879 3.19434C49.1331 3.6961 47.5974 4.26058 46.0889 4.88823C44.654 5.48541 43.2457 6.15652 41.8609 6.86212C40.6813 7.46311 39.5251 8.10756 38.3889 8.78718C37.2228 9.48449 36.0775 10.2208 34.959 10.9922C33.6784 11.8755 32.4406 12.8096 31.207 13.7573C30.4918 14.3068 29.7705 14.856 29.0929 15.4512C28.6357 15.853 28.6796 15.9169 28.0849 16.3192C27.6291 16.6274 27.0722 16.5835 26.559 16.3402C26.0458 16.097 25.194 15.5912 25.194 15.5912C25.194 15.5912 26.2163 14.8269 27.0209 14.2682C27.0061 14.2705 26.9855 14.2803 26.9719 14.2821C26.4605 14.3527 25.8023 14.1621 25.2919 14.0861C24.9818 14.04 24.6597 14.0268 24.3468 14.044C23.6661 14.0819 22.9994 14.2405 22.3308 14.3731C19.0357 15.0267 15.7423 15.7305 12.5169 16.6691C10.1931 17.3453 7.89307 18.121 5.66382 19.0632C4.92238 19.3766 4.17108 19.6924 3.50782 20.1483C2.8963 20.5687 2.32487 21.0653 1.86276 21.6464C1.42663 22.1947 1.12535 22.8466 0.826758 23.4805C0.548101 24.0721 0.256005 24.6666 0.126757 25.3074C-0.0743955 26.3051 0.0225966 27.3418 0.0286446 28.3594C0.0353646 29.4559 0.0680687 30.5582 0.175589 31.6495C0.285797 32.7684 0.448645 33.7392 0.497477 34.8626C0.507781 35.0976 0.503749 35.4813 0.406533 35.6957C0.333285 35.8569 0.317829 35.8903 0.266533 36.0597C0.220389 36.2124 0.294757 36.382 0.357477 36.5287C0.507781 36.88 0.745446 37.1967 1.01559 37.4668C1.15066 37.6019 1.34577 37.6646 1.48465 37.7959C1.68692 37.9874 1.80452 38.258 2.00254 38.454C2.42321 38.8698 2.88465 39.2593 3.40948 39.5319C4.15182 39.9174 4.98756 40.104 5.8036 40.2879C6.68235 40.4859 7.58686 40.5849 8.48466 40.6588C9.10872 40.7104 9.63848 40.7773 10.3607 40.7079C10.877 40.6983 10.795 40.7027 11.2636 40.694C10.881 39.5973 10.6687 38.4144 10.6687 37.1871C10.6687 31.3169 15.4314 26.5609 21.3017 26.5609C27.1721 26.5609 31.9279 31.3167 31.9279 37.1871C31.9279 38.2683 31.7659 39.3122 31.466 40.2951C31.8018 40.2892 31.7368 40.2942 32.0959 40.2881C36.682 40.2323 40.7414 40.1685 44.5839 40.1062C44.9974 37.5921 45.6931 35.1245 46.6839 32.7633C49.6532 25.2649 55.484 19.0858 62.581 15.3262C62.0438 15.3495 59.3061 15.4727 57.73 15.5923C54.5161 15.8358 51.3077 16.1662 48.1049 16.5304C46.8976 16.6677 44.675 16.8384 44.675 16.8384C44.675 16.8384 44.6862 15.9577 44.563 15.5435C44.4392 15.1275 43.954 14.3955 43.954 14.3955L45.802 6.95441C45.802 6.95441 47.8814 6.05057 48.9519 5.68746C50.6131 5.1241 52.3132 4.68596 54.0199 4.28052C55.7427 3.87104 57.4836 3.50704 59.2348 3.24451C60.6039 3.03933 61.9849 2.93405 63.365 2.82451C64.1931 2.75866 65.85 2.68451 65.85 2.68451C65.85 2.68451 65.1032 6.82762 64.6319 8.87947C64.1561 10.9517 63.0847 14.7922 62.994 15.1165C65.2269 13.9708 67.5757 13.064 70.001 12.4285L70.9669 2.65651C70.9669 2.65651 73.1421 2.65965 74.2288 2.70557C75.7961 2.77165 77.3632 2.89574 78.9258 3.03462C80.525 3.17686 82.1243 3.32672 83.7138 3.55251C84.8703 3.71693 86.0739 3.92211 87.1648 4.16157C87.4262 4.21891 87.7917 4.38423 87.8018 4.65168C87.8634 6.29719 87.8735 7.8634 87.8928 9.46769C87.9029 10.3113 87.9111 11.5715 87.9138 12.6317C89.3799 13.0474 90.8187 13.5685 92.2189 14.1717L90.616 5.05063C90.616 5.05063 92.1374 5.41911 92.8698 5.68769C93.8955 6.06356 94.9091 6.49364 95.8517 7.04557C97.0309 7.73594 98.1356 8.56654 99.1627 9.46747C99.8616 10.0806 100.594 10.6952 101.088 11.4835C101.524 12.1806 101.301 12.1492 100.661 12.4494C99.3289 13.0745 97.8456 13.3156 96.4117 13.6464C95.1909 13.928 93.1021 14.2606 92.6037 14.3395C96.0762 15.8849 99.3013 17.9835 102.089 20.5624C106.367 24.4302 109.491 29.4281 111.301 34.8704C111.566 34.5766 111.849 34.2786 111.952 33.9046C112.106 33.343 111.843 33.4707 111.813 32.1603ZM14.5824 19.8192C13.9328 20.4762 13.1497 20.9806 12.4264 21.5552C11.4141 22.3594 10.4447 23.2238 9.37439 23.9493C8.91003 24.264 8.44053 24.5844 7.91838 24.7893C7.45538 24.971 6.95451 25.0465 6.46238 25.1184C5.54667 25.2519 4.62267 25.32 3.69732 25.3074C3.36715 25.3029 2.98836 25.3943 2.71038 25.2165C2.52714 25.0993 2.51975 24.8171 2.38132 24.6495C2.16964 24.3928 1.89412 24.1874 1.62532 23.9914C1.4777 23.8839 1.18785 23.8911 1.15626 23.7114C1.06218 23.1745 1.81818 22.841 2.19226 22.4445C2.54193 22.074 2.84433 21.6002 3.31921 21.4154C3.53806 21.3303 3.79073 21.4694 4.01921 21.4154C4.59825 21.2788 5.06798 20.8505 5.61521 20.6175C6.30289 20.3248 7.01947 20.0956 7.72933 19.8615C8.44389 19.6259 9.15979 19.3752 9.89227 19.2034C10.541 19.0513 11.198 18.957 11.8592 18.8744C12.4201 18.8045 12.9884 18.7579 13.5531 18.7344C13.8266 18.7229 14.1232 18.6434 14.4001 18.6362C14.5663 18.632 14.7275 18.651 14.8691 18.7344C15.008 18.8161 15.1128 19.0007 15.1001 19.1613C15.0783 19.4388 14.7782 19.621 14.5824 19.8192ZM43.0094 13.6872C43.0094 13.6872 42.2352 13.5091 41.8614 13.5472C41.5404 13.5799 40.9524 13.7721 40.5243 13.9952C40.1509 14.1898 39.7018 14.477 39.3763 14.7442C39.0255 15.0323 38.623 15.5459 38.4593 15.9693C38.2214 16.5837 38.4593 17.7474 38.4593 17.7474C38.4593 17.7474 37.5297 17.8316 36.9334 17.8944C36.3402 17.9569 35.1483 18.0344 35.1483 18.0344C35.1483 18.0344 35.7271 15.6288 36.1353 14.4642C36.4112 13.6769 37.1222 12.1613 37.1222 12.1613C37.1222 12.1613 37.9945 11.3114 38.4801 10.9432C39.411 10.238 40.4246 9.64196 41.4412 9.06718C42.5072 8.46439 44.7241 7.42212 44.7241 7.42212C44.2268 9.45739 43.5114 11.653 43.0094 13.6872Z" fill="white" stroke="#E9BF5B" mask="url(#path-4-inside-1_141_24)"/>
<mask id="path-5-inside-2_141_24" fill="white">
<path d="M99.9824 45.4953C100.412 45.3163 100.827 45.1042 101.221 44.8654C101.215 44.74 101.209 44.6127 101.2 44.4873C100.78 44.8058 100.377 45.1461 99.9824 45.4953Z"/>
</mask>
<path d="M99.9824 45.4953C100.412 45.3163 100.827 45.1042 101.221 44.8654C101.215 44.74 101.209 44.6127 101.2 44.4873C100.78 44.8058 100.377 45.1461 99.9824 45.4953Z" fill="white"/>
<path d="M99.9824 45.4953L99.6511 45.1208L100.175 45.9569L99.9824 45.4953ZM101.221 44.8654L101.48 45.2932L101.736 45.1383L101.721 44.8396L101.221 44.8654ZM101.2 44.4873L101.699 44.4526L101.635 43.5305L100.898 44.0888L101.2 44.4873ZM99.9824 45.4953L100.175 45.9569C100.628 45.7679 101.065 45.5443 101.48 45.2932L101.221 44.8654L100.962 44.4377C100.588 44.6641 100.196 44.8647 99.7902 45.0337L99.9824 45.4953ZM101.221 44.8654L101.721 44.8396C101.714 44.7182 101.708 44.5838 101.699 44.4526L101.2 44.4873L100.702 44.522C100.71 44.6416 100.715 44.7617 100.722 44.8913L101.221 44.8654ZM101.2 44.4873L100.898 44.0888C100.464 44.4177 100.051 44.7668 99.6511 45.1208L99.9824 45.4953L100.314 45.8698C100.703 45.5253 101.096 45.194 101.502 44.8858L101.2 44.4873Z" fill="#E9BF5B" mask="url(#path-5-inside-2_141_24)"/>
<path d="M66.7325 15.6621C74.6435 12.4856 83.7844 12.6881 91.6007 16.1162L91.6046 16.1182C101.946 20.4771 109.491 30.7034 110.84 41.8516V41.8545C112.485 54.0683 106.414 66.7851 95.9708 73.3125L95.9679 73.3145C86.4551 79.4414 73.7153 79.9522 63.713 74.7178L63.7091 74.7158L63.2208 74.4639C53.0034 69.0859 46.3082 57.9576 46.1359 46.418V46.415L46.1261 45.7949C46.048 32.9105 54.3838 20.4788 66.3898 15.7939V15.7998L66.7325 15.6621ZM82.8898 69.8564C78.083 61.1914 67.8213 56.0366 57.9825 57.4922L57.9728 57.4932C57.7393 57.5189 57.5055 57.5448 57.2716 57.5703L56.8995 57.6104L57.0792 57.9385C61.9707 66.8803 72.7053 71.9764 82.715 70.2246L83.0607 70.1641L82.8898 69.8564ZM102.068 41.4434L101.849 41.4707V41.5518C93.4092 46.7237 88.8552 57.2876 90.754 66.9951L90.8214 67.3398L91.1251 67.1631C99.2141 62.4464 104.123 52.9202 103.187 43.6035L103.184 43.5703L103.172 43.5391L103.146 43.4482C103.123 43.3466 103.112 43.2121 103.105 43.0439C103.096 42.8372 103.094 42.5817 103.066 42.3555C103.038 42.1322 102.98 41.8802 102.822 41.6934C102.647 41.4857 102.388 41.4027 102.068 41.4434ZM98.4181 31.1445C92.2388 22.5925 80.2558 18.9279 70.3409 22.6113L69.8634 22.7949C69.5496 22.9114 69.2389 23.0455 68.9406 23.168C58.7238 27.2836 52.3523 38.8996 54.2286 49.7344L54.2794 50.0283L54.5607 49.9268C69.2628 44.5756 83.9645 39.2234 98.6661 33.8721C99.05 33.8421 99.3551 33.7532 99.5216 33.5439C99.7132 33.3032 99.6451 33.0162 99.5529 32.8086C99.4571 32.5931 99.2937 32.3653 99.1407 32.1602C98.98 31.9445 98.8277 31.75 98.7198 31.5732H98.7208L98.713 31.5625L98.4181 31.1445Z" fill="white" stroke="#E9BF5B" stroke-width="0.5"/>
</svg>
