<svg width="56" height="42" viewBox="0 0 56 42" fill="none" xmlns="http://www.w3.org/2000/svg">
<path d="M54.5038 12.1644H47.9773L46.1634 7.64622C44.2993 3.00092 39.8506 0 34.8285 0H20.9841C15.9631 0 11.5133 3.00092 9.64813 7.64622L7.83419 12.1644H1.30882C0.457448 12.1644 -0.167183 12.9616 0.0399375 13.7838L0.694001 16.3905C0.838985 16.9705 1.36224 17.3778 1.96288 17.3778H4.15073C2.68671 18.6518 1.74377 20.5036 1.74377 22.5911V27.8044C1.74377 29.5553 2.41528 31.1355 3.48794 32.3585V38.2311C3.48794 40.1503 5.05006 41.7067 6.97628 41.7067H10.4646C12.3908 41.7067 13.953 40.1503 13.953 38.2311V34.7556H41.8597V38.2311C41.8597 40.1503 43.4218 41.7067 45.348 41.7067H48.8363C50.7626 41.7067 52.3247 40.1503 52.3247 38.2311V32.3585C53.3973 31.1366 54.0688 29.5563 54.0688 27.8044V22.5911C54.0688 20.5036 53.1259 18.6518 51.663 17.3778H53.8508C54.4515 17.3778 54.9747 16.9705 55.1197 16.3905L55.7738 13.7838C55.9798 12.9616 55.3552 12.1644 54.5038 12.1644ZM16.1255 10.2279C16.9202 8.24901 18.8443 6.95111 20.9841 6.95111H34.8285C36.9684 6.95111 38.8924 8.24901 39.6871 10.2279L41.8597 15.64H13.953L16.1255 10.2279ZM10.4646 27.7827C8.37161 27.7827 6.97628 26.3968 6.97628 24.318C6.97628 22.2392 8.37161 20.8533 10.4646 20.8533C12.5576 20.8533 15.6971 23.9716 15.6971 26.0504C15.6971 28.1292 12.5576 27.7827 10.4646 27.7827ZM45.348 27.7827C43.255 27.7827 40.1155 28.1292 40.1155 26.0504C40.1155 23.9716 43.255 20.8533 45.348 20.8533C47.441 20.8533 48.8363 22.2392 48.8363 24.318C48.8363 26.3968 47.441 27.7827 45.348 27.7827Z" fill="white"/>
</svg>
