<svg width="54" height="52" viewBox="0 0 54 52" fill="none" xmlns="http://www.w3.org/2000/svg">
<path fill-rule="evenodd" clip-rule="evenodd" d="M3.05717 49.6965H24.4834C24.736 50.8537 25.7675 51.721 27 51.721C28.2325 51.721 29.264 50.8537 29.5166 49.6965H50.9429C52.6302 49.6965 54 48.3267 54 46.6395V5.08151C54 3.39428 52.6302 2.02445 50.9429 2.02445H29.5166C29.264 0.867306 28.2325 0 27 0C25.7675 0 24.736 0.867306 24.4834 2.02445H3.05717C1.36995 2.02445 0 3.39428 0 5.08151V46.6395C0 48.3267 1.36995 49.6965 3.05717 49.6965ZM3.05717 48.5945C1.97817 48.5945 1.10204 47.7184 1.10204 46.6395V5.08151C1.10204 4.00261 1.97817 3.12649 3.05717 3.12649H24.9752C25.2795 3.12649 25.5262 2.87963 25.5262 2.57547C25.5262 1.76216 26.1866 1.10204 27 1.10204C27.8134 1.10204 28.4738 1.76216 28.4738 2.57547C28.4738 2.87963 28.7205 3.12649 29.0248 3.12649H50.9429C52.0218 3.12649 52.898 4.00261 52.898 5.08151V46.6395C52.898 47.7184 52.0218 48.5945 50.9429 48.5945H29.0248C28.7205 48.5945 28.4738 48.8414 28.4738 49.1455C28.4738 49.9588 27.8134 50.6189 27 50.6189C26.1866 50.6189 25.5262 49.9588 25.5262 49.1455C25.5262 48.8414 25.2795 48.5945 24.9752 48.5945H3.05717ZM4.42921 6.90539H2.6449C2.45502 6.90539 2.27858 7.00347 2.17786 7.16437C2.07713 7.32527 2.06633 7.52585 2.1492 7.69666L2.69493 8.82074L2.1471 9.97568C2.0661 10.1465 2.07823 10.346 2.17917 10.5058C2.28023 10.6656 2.4559 10.7625 2.6449 10.7625H4.42921V11.6442H2.6449C2.45502 11.6442 2.27858 11.7422 2.17786 11.9031C2.07713 12.064 2.06633 12.2646 2.1492 12.4354L2.69493 13.5595L2.1471 14.7145C2.0661 14.8853 2.07823 15.0847 2.17917 15.2445C2.28023 15.4043 2.4559 15.5013 2.6449 15.5013H4.42921V46.6152C4.42921 46.9194 4.67596 47.1662 4.98023 47.1662H25.8569C26.1611 47.1662 26.4079 46.9194 26.4079 46.6152V39.4652C26.8025 39.4222 27.1973 39.4211 27.5921 39.4608V46.6152C27.5921 46.9194 27.8389 47.1662 28.1431 47.1662H49.0199C49.324 47.1662 49.5709 46.9194 49.5709 46.6152V44.5831H51.3551C51.5435 44.5831 51.7199 44.4861 51.8213 44.3263C51.9215 44.1665 51.9337 43.9659 51.8532 43.7951L51.3055 42.6413L51.851 41.5172C51.9337 41.3464 51.9226 41.1447 51.8224 40.9838C51.721 40.8229 51.5447 40.7259 51.3551 40.7259H49.5709V5.10576C49.5709 4.8016 49.324 4.55474 49.0199 4.55474H28.1431C27.8389 4.55474 27.5921 4.8016 27.5921 5.10576V9.89744C27.1973 9.86327 26.8025 9.86438 26.4079 9.90074V5.10576C26.4079 4.8016 26.1611 4.55474 25.8569 4.55474H4.98023C4.67596 4.55474 4.42921 4.8016 4.42921 5.10576V6.90539ZM28.6942 39.6812V46.0642H48.4689V5.65678H28.6942V10.0848C29.2608 10.2291 29.8273 10.4474 30.3937 10.7394C31.0574 10.8154 31.5735 11.3797 31.5735 12.0629C31.5735 12.798 30.9766 13.3953 30.2414 13.3953C29.5062 13.3953 28.9093 12.798 28.9093 12.0629C28.9093 11.8095 28.9805 11.5725 29.1039 11.3698C28.9673 11.3191 28.8307 11.2728 28.6942 11.232V14.0687C29.2608 14.2119 29.8273 14.4301 30.3937 14.7233C31.0574 14.7993 31.5735 15.3635 31.5735 16.0468C31.5735 16.7819 30.9766 17.3792 30.2414 17.3792C29.5062 17.3792 28.9093 16.7819 28.9093 16.0468C28.9093 15.7933 28.9805 15.5553 29.1039 15.3536C28.9673 15.3029 28.8307 15.2567 28.6942 15.2159V34.5501C29.2608 34.6945 29.8273 34.9127 30.3937 35.2047C31.0574 35.2807 31.5735 35.845 31.5735 36.5283C31.5735 37.2633 30.9766 37.8606 30.2414 37.8606C29.5062 37.8606 28.9093 37.2633 28.9093 36.5283C28.9093 36.2748 28.9805 36.0378 29.1039 35.8351C28.9673 35.7844 28.8307 35.7381 28.6942 35.6973V38.534C29.2608 38.6772 29.8273 38.8954 30.3937 39.1886C31.0574 39.2646 31.5735 39.8289 31.5735 40.5121C31.5735 41.2472 30.9766 41.8445 30.2414 41.8445C29.5062 41.8445 28.9093 41.2472 28.9093 40.5121C28.9093 40.2587 28.9805 40.0206 29.1039 39.8189C28.9673 39.7682 28.8307 39.722 28.6942 39.6812ZM25.3058 10.0936V5.65678H5.53125V7.45641V10.2115V12.1952V14.9503V46.0642H25.3058V39.69C25.1705 39.7297 25.0353 39.7749 24.8999 39.8256C25.021 40.0261 25.0907 40.2609 25.0907 40.5121C25.0907 41.2472 24.4938 41.8445 23.7586 41.8445C23.0234 41.8445 22.4265 41.2472 22.4265 40.5121C22.4265 39.8278 22.9444 39.2624 23.6095 39.1886C24.175 38.9031 24.7405 38.6871 25.3058 38.5417V35.7061C25.1705 35.7469 25.0353 35.7921 24.8999 35.8417C25.021 36.0422 25.0907 36.277 25.0907 36.5283C25.0907 37.2633 24.4938 37.8606 23.7586 37.8606C23.0234 37.8606 22.4265 37.2633 22.4265 36.5283C22.4265 35.8439 22.9444 35.2785 23.6095 35.2047C24.175 34.9193 24.7405 34.7033 25.3058 34.5589V15.2247C25.1705 15.2644 25.0353 15.3096 24.8999 15.3602C25.021 15.5608 25.0907 15.7955 25.0907 16.0468C25.0907 16.7819 24.4938 17.3792 23.7586 17.3792C23.0234 17.3792 22.4265 16.7819 22.4265 16.0468C22.4265 15.3624 22.9444 14.7971 23.6095 14.7233C24.175 14.4378 24.7405 14.2218 25.3058 14.0764V11.2408C25.1705 11.2816 25.0353 11.3268 24.8999 11.3764C25.021 11.5769 25.0907 11.8117 25.0907 12.0629C25.0907 12.798 24.4938 13.3953 23.7586 13.3953C23.0234 13.3953 22.4265 12.798 22.4265 12.0629C22.4265 11.3786 22.9444 10.8132 23.6095 10.7394C24.175 10.454 24.7405 10.238 25.3058 10.0936ZM49.5709 43.481H50.4834L50.1958 42.8738C50.1241 42.7228 50.1252 42.5476 50.198 42.3977L50.4746 41.828H49.5709V43.481ZM23.7554 40.2818C23.63 40.284 23.5286 40.3865 23.5286 40.5121C23.5286 40.6389 23.6316 40.7425 23.7586 40.7425C23.8855 40.7425 23.9887 40.6389 23.9887 40.5121C23.9887 40.3865 23.8875 40.284 23.7621 40.2818H23.7593H23.7554ZM30.2442 40.2818C30.2422 40.2818 30.2401 40.2818 30.2381 40.2818C30.1127 40.284 30.0113 40.3865 30.0113 40.5121C30.0113 40.6389 30.1145 40.7425 30.2414 40.7425C30.3684 40.7425 30.4714 40.6389 30.4714 40.5121C30.4714 40.3865 30.3699 40.284 30.2442 40.2818ZM39.3328 39.3054H44.8531C45.1572 39.3054 45.4041 39.0585 45.4041 38.7544C45.4041 38.4502 45.1572 38.2034 44.8531 38.2034H39.3328C39.0288 38.2034 38.7818 38.4502 38.7818 38.7544C38.7818 39.0585 39.0288 39.3054 39.3328 39.3054ZM27.5921 35.4769C27.1973 35.4372 26.8025 35.4383 26.4079 35.4813V38.3499C26.8025 38.3135 27.1973 38.3125 27.5921 38.3466V35.4769ZM39.3328 36.9911H44.8531C45.1572 36.9911 45.4041 36.7442 45.4041 36.4401C45.4041 36.1359 45.1572 35.8891 44.8531 35.8891H39.3328C39.0288 35.8891 38.7818 36.1359 38.7818 36.4401C38.7818 36.7442 39.0288 36.9911 39.3328 36.9911ZM30.2442 36.299C30.2422 36.299 30.2401 36.299 30.2381 36.299C30.1127 36.3001 30.0113 36.4026 30.0113 36.5283C30.0113 36.655 30.1145 36.7586 30.2414 36.7586C30.3684 36.7586 30.4714 36.655 30.4714 36.5283C30.4714 36.4026 30.3699 36.3001 30.2442 36.299ZM23.7554 36.299C23.63 36.3001 23.5286 36.4026 23.5286 36.5283C23.5286 36.655 23.6316 36.7586 23.7586 36.7586C23.8855 36.7586 23.9887 36.655 23.9887 36.5283C23.9887 36.4026 23.8875 36.3001 23.7621 36.299H23.7593H23.7554ZM39.3328 34.6768H44.8531C45.1572 34.6768 45.4041 34.43 45.4041 34.1258C45.4041 33.8216 45.1572 33.5748 44.8531 33.5748H39.3328C39.0288 33.5748 38.7818 33.8216 38.7818 34.1258C38.7818 34.43 39.0288 34.6768 39.3328 34.6768ZM27.5921 14.9955C27.1973 14.9558 26.8025 14.9569 26.4079 14.9999V34.3661C26.8025 34.3297 27.1973 34.3286 27.5921 34.3627V14.9955ZM8.25528 31.0401H13.7755C14.0797 31.0401 14.3265 30.7932 14.3265 30.4891C14.3265 30.1849 14.0797 29.938 13.7755 29.938H8.25528C7.95122 29.938 7.70426 30.1849 7.70426 30.4891C7.70426 30.7932 7.95122 31.0401 8.25528 31.0401ZM8.25528 28.7258H13.7755C14.0797 28.7258 14.3265 28.4789 14.3265 28.1748C14.3265 27.8706 14.0797 27.6238 13.7755 27.6238H8.25528C7.95122 27.6238 7.70426 27.8706 7.70426 28.1748C7.70426 28.4789 7.95122 28.7258 8.25528 28.7258ZM30.2442 15.8165C30.2422 15.8165 30.2401 15.8165 30.2381 15.8165C30.1127 15.8187 30.0113 15.9212 30.0113 16.0468C30.0113 16.1735 30.1145 16.2772 30.2414 16.2772C30.3684 16.2772 30.4714 16.1735 30.4714 16.0468C30.4714 15.9212 30.3699 15.8187 30.2442 15.8165ZM23.7554 15.8165C23.63 15.8187 23.5286 15.9212 23.5286 16.0468C23.5286 16.1735 23.6316 16.2772 23.7586 16.2772C23.8855 16.2772 23.9887 16.1735 23.9887 16.0468C23.9887 15.9212 23.8875 15.8187 23.7621 15.8165H23.7593H23.7554ZM4.42921 14.3993V12.7462H3.5251L3.80182 13.316C3.87477 13.4658 3.87566 13.6422 3.80392 13.7931L3.51617 14.3993H4.42921ZM15.4185 13.9585H20.9388C21.2429 13.9585 21.4898 13.7116 21.4898 13.4074C21.4898 13.1033 21.2429 12.8564 20.9388 12.8564H15.4185C15.1145 12.8564 14.8675 13.1033 14.8675 13.4074C14.8675 13.7116 15.1145 13.9585 15.4185 13.9585ZM27.5921 11.0116C27.1973 10.9719 26.8025 10.973 26.4079 11.016V13.8846C26.8025 13.8482 27.1973 13.8472 27.5921 13.8813V11.0116ZM23.7554 11.8337C23.63 11.8348 23.5286 11.9373 23.5286 12.0629C23.5286 12.1897 23.6316 12.2933 23.7586 12.2933C23.8855 12.2933 23.9887 12.1897 23.9887 12.0629C23.9887 11.9373 23.8875 11.8348 23.7621 11.8337H23.7593H23.7554ZM30.2442 11.8337C30.2422 11.8337 30.2401 11.8337 30.2381 11.8337C30.1127 11.8348 30.0113 11.9373 30.0113 12.0629C30.0113 12.1897 30.1145 12.2933 30.2414 12.2933C30.3684 12.2933 30.4714 12.1897 30.4714 12.0629C30.4714 11.9373 30.3699 11.8348 30.2442 11.8337ZM15.4185 11.6442H20.9388C21.2429 11.6442 21.4898 11.3973 21.4898 11.0931C21.4898 10.789 21.2429 10.5421 20.9388 10.5421H15.4185C15.1145 10.5421 14.8675 10.789 14.8675 11.0931C14.8675 11.3973 15.1145 11.6442 15.4185 11.6442ZM39.3328 10.7625H44.8531C45.1572 10.7625 45.4041 10.5157 45.4041 10.2115C45.4041 9.90735 45.1572 9.66049 44.8531 9.66049H39.3328C39.0288 9.66049 38.7818 9.90735 38.7818 10.2115C38.7818 10.5157 39.0288 10.7625 39.3328 10.7625ZM4.42921 9.66049V8.00743H3.5251L3.80182 8.57719C3.87477 8.72707 3.87566 8.90339 3.80392 9.05437L3.51617 9.66049H4.42921ZM15.4185 9.32988H20.9388C21.2429 9.32988 21.4898 9.08302 21.4898 8.77886C21.4898 8.4747 21.2429 8.22784 20.9388 8.22784H15.4185C15.1145 8.22784 14.8675 8.4747 14.8675 8.77886C14.8675 9.08302 15.1145 9.32988 15.4185 9.32988Z" fill="white"/>
</svg>
