<svg width="13" height="8" viewBox="0 0 13 8" fill="none" xmlns="http://www.w3.org/2000/svg">
<path d="M12.8701 0.788292L12.2188 0.131436C12.1321 0.0437198 12.0321 0 11.9191 0C11.8063 0 11.7064 0.0437198 11.6196 0.131436L6.50007 5.29512L1.38072 0.131574C1.29389 0.043858 1.19397 0.000137987 1.08109 0.000137987C0.968171 0.000137987 0.868251 0.043858 0.781472 0.131574L0.130306 0.788476C0.0433441 0.876007 0 0.976793 0 1.09069C0 1.2045 0.043481 1.30529 0.130306 1.39282L6.20045 7.51572C6.28723 7.60329 6.38719 7.64706 6.50007 7.64706C6.61295 7.64706 6.71273 7.60329 6.79946 7.51572L12.8701 1.39282C12.9569 1.30524 13 1.20446 13 1.09069C13 0.976793 12.9569 0.876008 12.8701 0.788292Z" fill="#E9BF5B"/>
</svg>
