<svg width="31" height="31" viewBox="0 0 31 31" fill="none" xmlns="http://www.w3.org/2000/svg">
<path d="M27.6357 0H3.36434C1.50627 0 0 1.50627 0 3.36434V27.6357C0 29.4937 1.50627 31 3.36434 31H27.6357C29.4937 31 31 29.4937 31 27.6357V3.36434C31 1.50627 29.4937 0 27.6357 0Z" fill="#3B5999"/>
<path fill-rule="evenodd" clip-rule="evenodd" d="M10.093 12.7368H13.3372V12.136C13.3372 11.1747 13.217 9.97319 13.3372 9.01195C13.4574 6.72901 14.6589 5.28715 17.7829 5.16699L20.907 5.28715V8.65149C19.5853 8.65149 17.3023 8.17087 17.062 9.85304V12.7368H20.6667L20.3062 16.4616H17.062V25.8337H13.3372V16.4616L10.093 16.3414V12.7368Z" fill="white"/>
<path fill-rule="evenodd" clip-rule="evenodd" d="M30.9999 15.3801L20.9069 5.28711V8.65145C19.5852 8.65145 17.3023 8.17083 17.062 9.853V12.7367H20.6666L20.3062 16.4615H17.062V25.8336H13.3372L18.5038 31.0003H27.6356L30.9999 27.6359V15.3801Z" fill="#30487C"/>
</svg>
