<svg width="70" height="70" viewBox="0 0 70 70" fill="none" xmlns="http://www.w3.org/2000/svg">
<path d="M68.1504 16.6797C67.4864 16.1328 65.5894 15.4947 62.4593 14.7656L59.7561 14.4922V8.20312L60.1118 8.13477C60.3489 8.08924 60.5623 8.06641 60.752 8.06641H61.1788C63.2656 9.16016 64.3563 10.2084 64.4512 11.2109H69.7154C69.6205 9.20568 68.1978 7.20057 65.4471 5.19531C64.214 4.28381 62.317 3.73693 59.7561 3.55469V0H56.9105V3.41797C54.8238 3.60021 53.0691 4.28381 51.6463 5.46875C50.0339 6.92713 49.2276 8.79566 49.2276 11.0742C49.2276 13.6263 50.0339 15.4492 51.6463 16.543C52.8794 17.3633 54.6341 17.9557 56.9105 18.3203V25.1562C55.8672 25.0651 55.2032 24.8373 54.9187 24.4727C54.729 24.2904 54.5867 24.017 54.4918 23.6523C54.3969 23.2877 54.3258 22.9916 54.2784 22.7637C54.231 22.5358 54.1599 22.4219 54.065 22.4219H48.8008C48.8008 24.7916 49.7493 26.6602 51.6463 28.0273C52.6899 28.8477 54.4446 29.349 56.9105 29.5312V32.2656H59.7561V29.668C62.8861 29.3945 65.1626 28.6654 66.5853 27.4805C68.8618 25.6576 70 23.7435 70 21.7383C70 19.1862 69.3835 17.5 68.1504 16.6797ZM56.9105 13.2617C56.5311 13.2617 56.0569 13.0795 55.4878 12.7148C54.6341 12.3502 54.2073 11.6666 54.2073 10.6641C54.2073 9.66123 54.5867 8.93211 55.3455 8.47656L55.63 8.20312C55.7249 8.11193 55.8435 8.04357 55.9857 7.99805C56.128 7.95252 56.4363 7.88416 56.9105 7.79297V13.2617ZM61.7479 25.0195C61.653 25.1107 61.4396 25.1562 61.1077 25.1562C60.7758 25.1562 60.4674 25.1791 60.1829 25.2246L59.7561 25.293V19.4141C61.1788 19.5963 62.2221 19.8697 62.8861 20.2344C63.6449 20.6901 64.0244 21.3281 64.0244 22.1484C64.0244 23.6068 63.2656 24.5638 61.7479 25.0195Z" fill="#010002"/>
<path d="M54.6341 41.9727H53.9228L44.9593 26.3867C44.4851 25.5664 43.7738 25.1562 42.8252 25.1562H15.6504C14.7018 25.1562 13.9905 25.5664 13.5163 26.3867L4.55285 41.9727H3.69919C2.84553 41.9727 2.01563 42.2689 1.20935 42.8613C0.403069 43.4537 0 44.1146 0 44.8438V58.7891C0 59.5182 0.403069 60.1791 1.20935 60.7715C2.01563 61.3639 2.84553 61.6602 3.69919 61.6602H5.83333V65.7617C5.83333 66.9467 6.37868 67.9492 7.46951 68.7695C8.56034 69.5898 9.72217 70 10.9553 70H12.378C13.6112 70 14.536 69.6127 15.1524 68.8379C15.7689 68.0631 16.0772 67.0377 16.0772 65.7617V61.6602H40.8333V65.7617C40.8333 66.9467 41.3787 67.9492 42.4695 68.7695C43.5603 69.5898 44.7222 70 45.9553 70H47.378C48.5163 70 49.4173 69.6127 50.0813 68.8379C50.7453 68.0631 51.0772 67.0377 51.0772 65.7617V61.6602H54.6341C56.1518 61.6602 56.9106 60.7031 56.9106 58.7891V44.8438C56.9106 42.9297 56.1518 41.9727 54.6341 41.9727ZM11.311 52.1582C10.5996 52.8418 9.74593 53.1836 8.75 53.1836C7.75406 53.1836 6.90041 52.8418 6.18902 52.1582C5.47764 51.4746 5.12195 50.6543 5.12195 49.6973C5.12195 48.7402 5.47764 47.9199 6.18902 47.2363C6.90041 46.5527 7.75406 46.2109 8.75 46.2109C9.74593 46.2109 10.5996 46.5527 11.311 47.2363C12.0224 47.9199 12.378 48.7402 12.378 49.6973C12.378 50.6543 12.0224 51.4746 11.311 52.1582ZM11.6667 41.9727L17.6423 30.625C18.0217 29.8047 18.7331 29.3945 19.7764 29.3945H38.6992C39.6477 29.3945 40.3591 29.8047 40.8333 30.625L46.6667 41.9727H11.6667ZM52.1443 52.1582C51.4329 52.8418 50.5793 53.1836 49.5833 53.1836C48.5874 53.1836 47.7337 52.8418 47.0224 52.1582C46.311 51.4746 45.9553 50.6543 45.9553 49.6973C45.9553 48.7402 46.311 47.9199 47.0224 47.2363C47.7337 46.5527 48.5874 46.2109 49.5833 46.2109C50.5793 46.2109 51.4329 46.5527 52.1443 47.2363C52.8557 47.9199 53.2114 48.7402 53.2114 49.6973C53.2114 50.6543 52.8557 51.4746 52.1443 52.1582Z" fill="#010002"/>
</svg>
