<svg width="39" height="39" viewBox="0 0 39 39" fill="none" xmlns="http://www.w3.org/2000/svg">
<path d="M19.5 0C8.775 0 0 8.775 0 19.5C0 30.225 8.775 39 19.5 39C30.225 39 39 30.225 39 19.5C39 8.775 30.225 0 19.5 0ZM19.5 5.85C22.815 5.85 25.35 8.385 25.35 11.7C25.35 15.015 22.815 17.55 19.5 17.55C16.185 17.55 13.65 15.015 13.65 11.7C13.65 8.385 16.185 5.85 19.5 5.85ZM19.5 33.54C14.625 33.54 10.335 31.0051 7.8 27.3C7.8 23.4 15.6 21.255 19.5 21.255C23.4 21.255 31.2 23.4 31.2 27.3C28.665 31.005 24.375 33.54 19.5 33.54Z" fill="#E9BF5B"/>
</svg>
