<svg width="113" height="109" viewBox="0 0 113 109" fill="none" xmlns="http://www.w3.org/2000/svg">
<path d="M56.2424 0.25C56.8458 0.250107 57.3999 0.455826 57.842 0.798828H57.843L110.879 41.8379V41.8389C111.686 42.464 112.075 43.524 111.816 44.5498L111.755 44.7539C111.383 45.8402 110.367 46.5244 109.278 46.5244H3.20435C2.18446 46.5244 1.22752 45.9231 0.803955 44.9521L0.726807 44.7529C0.356856 43.6663 0.742018 42.5054 1.60474 41.8389V41.8379L54.6399 0.798828C55.0842 0.455338 55.6396 0.25 56.2424 0.25ZM56.0891 15.6387L33.0667 33.4551L32.4875 33.9023H79.9963L79.4172 33.4551L56.3948 15.6387L56.2424 15.5205L56.0891 15.6387Z" fill="white" stroke="#E9BF5B" stroke-width="0.5"/>
<path d="M18.3413 57.8887H18.0913C16.1418 57.8887 14.5454 56.2919 14.5454 54.3447C14.5455 52.3947 16.1422 50.8008 18.0913 50.8008H32.7896C34.7373 50.801 36.3334 52.3949 36.3335 54.3447C36.3335 56.2918 34.7375 57.8885 32.7896 57.8887H32.5396V88.7393H35.6733C36.0352 88.7393 36.3333 89.0353 36.3335 89.3975V91.2178C36.3335 91.581 36.035 91.8789 35.6733 91.8789H15.2085C14.8434 91.8789 14.5455 91.5805 14.5454 91.2178V89.3975C14.5456 89.0363 14.8433 88.7393 15.2085 88.7393H18.3413V57.8887Z" fill="white" stroke="#E9BF5B" stroke-width="0.5"/>
<path d="M49.1421 57.8887H48.8921C46.9432 57.8886 45.3481 56.2919 45.3481 54.3447C45.3482 52.4555 46.845 50.9011 48.7104 50.8057L48.8921 50.8008H63.5913C65.5388 50.8008 67.1342 52.3947 67.1343 54.3447C67.1343 56.292 65.5385 57.8887 63.5913 57.8887H63.3413V88.7393H66.4731C66.7915 88.7393 67.0594 88.9659 67.1216 89.2656L67.1353 89.3984V91.2178C67.1352 91.5807 66.837 91.8787 66.4741 91.8789H46.0103C45.6461 91.8789 45.3482 91.5807 45.3481 91.2178V89.3975C45.3483 89.0359 45.6455 88.7393 46.0103 88.7393H49.1421V57.8887Z" fill="white" stroke="#E9BF5B" stroke-width="0.5"/>
<path d="M79.9438 57.8887H79.6938C77.746 57.8886 76.1499 56.2919 76.1499 54.3447C76.15 52.3946 77.746 50.8009 79.6938 50.8008H94.3911C96.3402 50.8008 97.9369 52.3948 97.937 54.3447C97.937 56.2919 96.3404 57.8887 94.3911 57.8887H94.1411V88.7393H97.2759C97.6395 88.7394 97.9368 89.0354 97.937 89.3975V91.2178C97.937 91.5807 97.6388 91.8787 97.2759 91.8789H76.8101C76.4492 91.8789 76.1499 91.5808 76.1499 91.2178V89.3975C76.1501 89.0359 76.4486 88.7393 76.8101 88.7393H79.9438V57.8887Z" fill="white" stroke="#E9BF5B" stroke-width="0.5"/>
<path d="M11.249 96.1289H101.235C101.652 96.1289 102.067 96.2862 102.382 96.6035V96.6045L102.383 96.6055C102.701 96.9214 102.86 97.3362 102.86 97.7539V102.688H110.608C111.025 102.689 111.441 102.849 111.756 103.164V103.165C112.074 103.484 112.232 103.899 112.232 104.314V108.75H0.25V104.314L0.257812 104.158C0.292507 103.796 0.446997 103.443 0.724609 103.164L0.725586 103.165C1.04253 102.848 1.45789 102.688 1.875 102.688H9.62402V97.7539C9.62404 97.3364 9.78348 96.9207 10.0996 96.6045H10.1006C10.4171 96.2863 10.8322 96.129 11.249 96.1289Z" fill="white" stroke="#E9BF5B" stroke-width="0.5"/>
</svg>
