<svg width="53" height="44" viewBox="0 0 53 44" fill="none" xmlns="http://www.w3.org/2000/svg">
<path d="M1.65605 36.4377H21.5311C22.4467 36.4377 23.1877 35.8809 23.1877 35.1954V32.7106C23.1877 32.0251 22.4467 31.4689 21.5311 31.4689H1.65605C0.740694 31.4689 0 32.025 0 32.7106V35.1954C0 35.8809 0.740694 36.4377 1.65605 36.4377ZM1.65605 43.0628H21.5311C22.4467 43.0628 23.1877 42.5062 23.1877 41.8206V39.3358C23.1877 38.6501 22.4467 38.0939 21.5311 38.0939H1.65605C0.740694 38.0939 0 38.6501 0 39.3358V41.8206C0 42.5062 0.740694 43.0628 1.65605 43.0628ZM1.65605 29.8119H21.5311C22.4467 29.8119 23.1877 29.2558 23.1877 28.5702V26.0865C23.1877 25.4003 22.4467 24.8436 21.5311 24.8436H1.65605C0.740694 24.8435 0 25.4002 0 26.0864V28.5701C0 29.2558 0.740694 29.8119 1.65605 29.8119ZM26.4274 29.1527C26.4531 28.9585 26.5001 28.7709 26.5001 28.5701V26.0864C26.5001 23.5304 24.3178 21.5311 21.5311 21.5311H14.9062C14.9062 16.9571 18.6136 13.2501 23.1877 13.2501C27.7618 13.2501 31.469 16.9571 31.469 21.5311C31.4691 24.9537 29.3905 27.8906 26.4274 29.1527ZM0 6.62496H46.3753V36.4377H26.3028C26.4209 36.0431 26.5001 35.6287 26.5001 35.1954V33.1251H36.4378C36.4378 29.4663 39.4043 26.4999 43.0625 26.4999V16.5626C39.4043 16.5626 36.4378 13.5961 36.4378 9.9376H9.9376C9.9376 13.5962 6.97144 16.5626 3.31264 16.5626V21.5311H1.65605C1.06893 21.5311 0.519174 21.638 0 21.7996V6.62496ZM53 0V33.1251H49.6879V3.31253H3.31264V0H53Z" fill="white"/>
</svg>
