<svg width="54" height="55" viewBox="0 0 54 55" fill="none" xmlns="http://www.w3.org/2000/svg">
<path d="M52.9141 27.994L30.4091 9.99002C29.5309 9.33134 28.7624 7.83097 28.1037 5.48902C27.6646 3.9521 26.6766 2.65306 25.1397 1.59182C23.6027 0.530569 21.9926 0 20.3093 0C18.992 0 17.6746 0.457455 16.3572 1.37226C15.0399 2.28706 14.0884 3.29341 13.5029 4.39122H20.3093L22.944 7.46507L20.3093 11.1976H13.8323C14.2714 12.4417 15.1313 13.4481 16.4121 14.2166C17.6929 14.985 19.175 15.1863 20.8582 14.8204C20.9314 14.8204 21.4987 14.7655 22.5598 14.6557C23.6211 14.5459 24.4261 14.4727 24.975 14.4361C25.5239 14.3996 26.2009 14.4178 27.0059 14.491C27.5183 14.6374 27.9025 14.7655 28.1586 14.8753C28.4152 14.985 28.6165 15.1131 28.7624 15.2595C28.9087 15.4058 29.2564 15.7352 29.8053 16.2475C30.3542 16.7599 30.9946 17.3088 31.7265 17.8942L49.5109 32.495C50.6087 33.5194 51.7431 33.3364 52.9141 31.9461C53.4265 31.4338 53.6826 30.7751 53.6826 29.9701C53.6826 29.165 53.4265 28.5064 52.9141 27.994Z" fill="white"/>
<path d="M38.4231 34.8004L31.507 22.7245C30.9944 21.773 30.4821 21.2974 29.9701 21.2974H10.5389C10.0998 21.2974 9.58745 21.773 9.002 22.7245L2.30539 34.8004H2.08583C0.695239 34.8004 0 35.3127 0 36.3373V46.6566C0 47.7544 0.695239 48.3033 2.08583 48.3033H4.501V51.9261C4.501 52.8043 4.75712 53.5363 5.26946 54.1217C5.78181 54.7072 6.44049 55 7.24551 55H8.34331C9.14833 55 9.84368 54.7072 10.4291 54.1217C11.0146 53.5363 11.3074 52.8043 11.3074 51.9261V48.3033H29.2016V51.9261C29.2016 52.7311 29.4944 53.4447 30.0798 54.0668C30.6654 54.6889 31.3608 55 32.1657 55H33.2635C34.0685 55 34.7272 54.7072 35.2395 54.1217C35.7519 53.5363 36.008 52.8043 36.008 51.9261V48.3033H38.4231C39.8137 48.3033 40.509 47.7544 40.509 46.6566V36.3373C40.509 35.3127 39.8137 34.8004 38.4231 34.8004ZM7.57485 41.8263C7.0625 42.3386 6.44049 42.5948 5.70858 42.5948C4.97668 42.5948 4.37288 42.3386 3.89721 41.8263C3.42153 41.314 3.18363 40.6919 3.18363 39.96C3.18363 39.2281 3.42153 38.6061 3.89721 38.0938C4.37288 37.5814 4.97668 37.3253 5.70858 37.3253C6.44049 37.3253 7.0625 37.5814 7.57485 38.0938C8.0872 38.6061 8.34331 39.2282 8.34331 39.96C8.34331 40.6919 8.0872 41.314 7.57485 41.8263ZM7.79441 34.8004L11.9661 26.0179C12.4052 25.1397 12.9175 24.7006 13.503 24.7006H27.006C27.5914 24.7006 28.1038 25.1397 28.5429 26.0179L32.7146 34.8004H7.79441ZM36.6667 41.8263C36.1543 42.3386 35.5322 42.5948 34.8004 42.5948C34.0683 42.5948 33.4461 42.3386 32.9341 41.8263C32.4218 41.314 32.1657 40.6919 32.1657 39.96C32.1657 39.2281 32.4218 38.6061 32.9341 38.0938C33.4465 37.5814 34.0685 37.3253 34.8004 37.3253C35.5323 37.3253 36.1543 37.5814 36.6667 38.0938C37.179 38.6061 37.4351 39.2282 37.4351 39.96C37.4351 40.6919 37.179 41.314 36.6667 41.8263Z" fill="white"/>
</svg>
