<svg width="44" height="70" viewBox="0 0 44 70" fill="none" xmlns="http://www.w3.org/2000/svg">
<path d="M34.0012 0H33.8348C31.3887 0 29.3985 1.99015 29.3985 4.43623V46.3805C29.3985 49.0583 28.4289 51.7259 26.6683 53.892C25.2438 55.6452 24.4592 57.8568 24.4592 60.1196C24.4592 65.5678 28.8913 70 34.3394 70H35.7641L32.1741 62.6576L32.9152 60.2172H36.4114L39.4271 67.2536L40.3393 66.5257C40.4681 66.4231 41.6208 65.4547 42.4739 63.0972C42.515 62.9838 42.5541 62.8702 42.5918 62.7557C43.8276 58.9887 42.9835 54.7043 40.3885 51.5743C39.5279 50.5362 38.9323 49.3169 38.666 48.048C38.5144 47.3251 38.4373 46.5839 38.4373 45.8451V4.43623C38.4374 1.99015 36.4474 0 34.0012 0ZM31.1772 13.6637H33.0739V41.972H34.8526V13.6637H36.6588V45.8451C36.6588 46.3446 36.6927 46.8446 36.7525 47.3414H31.1385C31.1622 47.0219 31.1773 46.7014 31.1773 46.3806V13.6637H31.1772ZM36.6588 11.885H31.1773V11.2305H36.6588V11.885ZM33.8348 1.77864H34.0012C35.4667 1.77864 36.6588 2.97078 36.6588 4.43623V9.45171H31.1773V4.43623C31.1772 2.97078 32.3693 1.77864 33.8348 1.77864ZM39.0194 52.7094C41.2275 55.3729 41.9491 59.0099 40.9019 62.2009C40.87 62.298 40.8368 62.3948 40.8017 62.4916C40.5518 63.182 40.2742 63.7214 40.0225 64.1275L37.5844 58.4384H31.5965L30.2692 62.8103L32.8475 68.0834C29.0904 67.3811 26.238 64.0771 26.238 60.1195C26.238 58.2638 26.881 56.4507 28.0488 55.0137C29.4648 53.2719 30.4319 51.242 30.8841 49.1199H37.1039C37.4813 50.4133 38.1348 51.6426 39.0194 52.7094Z" fill="white"/>
<path d="M33.9632 6.80434C35.2641 6.80434 36.3226 5.7459 36.3226 4.44497C36.3226 3.14389 35.2641 2.08545 33.9632 2.08545C32.6621 2.08545 31.6035 3.14389 31.6035 4.44497C31.6035 5.7459 32.6621 6.80434 33.9632 6.80434ZM33.9632 3.86409C34.2833 3.86409 34.5439 4.12452 34.5439 4.44497C34.5439 4.76527 34.2833 5.02569 33.9632 5.02569C33.6427 5.02569 33.3822 4.76512 33.3822 4.44497C33.3822 4.12452 33.6427 3.86409 33.9632 3.86409Z" fill="white"/>
<path d="M34.8526 43.75H33.074V46.651H34.8526V43.75Z" fill="white"/>
<path d="M11.7316 63.1958C10.4305 63.1958 9.37207 64.2542 9.37207 65.5553C9.37207 66.8564 10.4305 67.9148 11.7316 67.9148C13.0327 67.9148 14.0911 66.8564 14.0911 65.5553C14.0911 64.2542 13.0327 63.1958 11.7316 63.1958ZM11.7316 66.136C11.4113 66.136 11.1507 65.8755 11.1507 65.5552C11.1507 65.2349 11.4113 64.9743 11.7316 64.9743C12.0519 64.9743 12.3125 65.2349 12.3125 65.5552C12.3125 65.8755 12.052 66.136 11.7316 66.136Z" fill="white"/>
<path d="M19.7382 15.0396C20.6884 13.4903 21.1906 11.7063 21.1906 9.88036C21.1906 4.43223 16.7584 0 11.3102 0H9.88555L13.4754 7.34239L12.7345 9.78269H9.23813L6.22243 2.74637L5.31014 3.47443C5.18311 3.57581 2.32676 5.9383 2.27563 12.4905H0V16.6563L0.78868 17.1107C1.42855 17.4769 2.0367 17.8983 2.59801 18.3646C2.73363 18.4767 2.86821 18.5929 2.99731 18.709C5.6761 21.1252 7.2124 24.5801 7.2124 28.1876V65.5635C7.2124 68.0097 9.2027 70 11.6489 70H11.8146C14.261 70 16.2512 68.0097 16.2512 65.5635V29.5986V27.5534C16.2513 23.0859 17.4569 18.7588 19.7382 15.0396ZM5.62941 5.87753L7.56961 10.4046L4.99621 12.4905H4.05323C4.08273 9.05952 4.95249 6.97925 5.62941 5.87753ZM4.18767 17.3873C4.03945 17.254 3.88604 17.1217 3.73337 16.9954C3.12537 16.4902 2.46787 16.0305 1.77879 15.6285V14.2692H5.6263L8.96703 11.5613H14.0534L15.3807 7.18957L12.8024 1.91634C16.5593 2.61861 19.412 5.92259 19.412 9.88036C19.412 11.378 19.0005 12.8403 18.2219 14.1097C15.7692 18.1087 14.4727 22.7574 14.4725 27.5533V29.5987V56.3365H12.621V28.028H10.8423V56.3365H8.99104V28.1878C8.99119 24.0775 7.24071 20.1412 4.18767 17.3873ZM8.99119 58.1151H14.4727V58.7695H8.99119V58.1151ZM11.8148 68.2214H11.6491C10.1835 68.2214 8.99119 67.0289 8.99119 65.5635V60.5481H14.4727V65.5635C14.4727 67.0289 13.2802 68.2214 11.8148 68.2214Z" fill="white"/>
<path d="M14.4539 13.5273H7.23633V18.6703H14.4539V13.5273ZM9.01497 15.306H9.95588V16.8916H9.01497V15.306ZM12.6753 16.8916H11.7345V15.306H12.6753V16.8916Z" fill="white"/>
<path d="M12.6209 23.3491H10.8423V26.2502H12.6209V23.3491Z" fill="white"/>
</svg>
