<svg width="40" height="45" viewBox="0 0 40 45" fill="none" xmlns="http://www.w3.org/2000/svg">
<path d="M20 44.6754C19.2564 44.6818 18.5256 44.482 17.8885 44.0984L9.92787 39.4426C6.94769 37.7759 4.46029 35.3521 2.71707 32.416C0.973844 29.4799 0.0365803 26.1357 0 22.7213V10C0.000352673 9.14275 0.263222 8.30617 0.753249 7.60278C1.24328 6.89939 1.93696 6.36294 2.74098 6.06558L18.5574 0.255743C19.4889 -0.0852477 20.5111 -0.0852477 21.4426 0.255743L37.259 6.06558C38.063 6.36294 38.7567 6.89939 39.2467 7.60278C39.7368 8.30617 39.9996 9.14275 40 10V22.7213C39.9634 26.1357 39.0262 29.4799 37.2829 32.416C35.5397 35.3521 33.0523 37.7759 30.0721 39.4426L22.1115 44.0984C21.4744 44.482 20.7436 44.6818 20 44.6754ZM20 3.28525C19.8959 3.26631 19.7893 3.26631 19.6852 3.28525L3.86885 9.12132C3.6907 9.18729 3.53782 9.30766 3.4319 9.46537C3.32597 9.62308 3.27237 9.81013 3.27869 10V22.7213C3.31672 25.5623 4.10446 28.3429 5.56222 30.7817C7.01998 33.2205 9.09603 35.231 11.5803 36.6098L19.541 41.2787C19.6818 41.3556 19.8396 41.3959 20 41.3959C20.1604 41.3959 20.3182 41.3556 20.459 41.2787L28.4197 36.6098C30.904 35.231 32.98 33.2205 34.4378 30.7817C35.8955 28.3429 36.6833 25.5623 36.7213 22.7213V10C36.7221 9.81456 36.666 9.63335 36.5604 9.48088C36.4549 9.32841 36.305 9.21205 36.1311 9.14755L20.3148 3.33771C20.2139 3.30116 20.1072 3.28338 20 3.28525Z" fill="white"/>
<path d="M18.5573 28.8193C18.1703 28.8167 17.7956 28.6826 17.495 28.4389L11.895 23.7176C11.561 23.4376 11.352 23.0364 11.3139 22.6023C11.2758 22.1682 11.4117 21.7368 11.6917 21.4029C11.9717 21.0689 12.3729 20.8599 12.807 20.8218C13.2411 20.7837 13.6725 20.9196 14.0064 21.1996L18.3999 24.8979L25.9015 16.6356C26.1937 16.3122 26.6024 16.118 27.0377 16.0959C27.4731 16.0737 27.8994 16.2254 28.2228 16.5176C28.5463 16.8098 28.7405 17.2185 28.7626 17.6538C28.7847 18.0892 28.633 18.5154 28.3409 18.8389L19.8425 28.2816C19.6798 28.4587 19.4807 28.5984 19.2588 28.6912C19.0369 28.7841 18.7976 28.8277 18.5573 28.8193Z" fill="white"/>
</svg>
