<svg width="28" height="28" viewBox="0 0 28 28" fill="none" xmlns="http://www.w3.org/2000/svg">
<path d="M13.7362 0C6.22875 0 0.11 6.11875 0.11 13.6262C0.11 16.0325 0.7425 18.37 1.925 20.4325L0 27.5L7.21875 25.6025C9.2125 26.6888 11.4537 27.2663 13.7362 27.2663C21.2437 27.2663 27.3625 21.1475 27.3625 13.64C27.3625 9.99625 25.9463 6.5725 23.375 4.00125C20.8037 1.41625 17.38 0 13.7362 0ZM13.75 2.29625C16.775 2.29625 19.6075 3.47875 21.7525 5.62375C23.8838 7.76875 25.0663 10.615 25.0663 13.64C25.0663 19.8825 19.9788 24.9562 13.7362 24.9562C11.7013 24.9562 9.7075 24.42 7.975 23.375L7.5625 23.1413L3.2725 24.2687L4.41375 20.0888L4.13875 19.6488C3.01125 17.875 2.40625 15.7712 2.40625 13.6262C2.42 7.38375 7.49375 2.29625 13.75 2.29625ZM8.91 7.32875C8.69 7.32875 8.31875 7.41125 8.0025 7.755C7.7 8.09875 6.80625 8.9375 6.80625 10.6012C6.80625 12.2788 8.03 13.8875 8.18125 14.1213C8.37375 14.355 10.6012 17.7925 14.025 19.25C14.8362 19.6213 15.4687 19.8275 15.9637 19.9788C16.775 20.24 17.5175 20.1987 18.1087 20.1162C18.7687 20.02 20.1162 19.2913 20.405 18.4937C20.6937 17.6962 20.6938 17.0225 20.6113 16.8713C20.515 16.7338 20.295 16.6513 19.9512 16.5C19.6075 16.3075 17.93 15.4825 17.6275 15.3725C17.3112 15.2625 17.1187 15.2075 16.8575 15.5375C16.6375 15.8813 15.9775 16.6513 15.785 16.8713C15.5787 17.105 15.3862 17.1325 15.0562 16.9675C14.6987 16.7887 13.5988 16.4312 12.3062 15.2762C11.2887 14.3687 10.615 13.255 10.4087 12.9113C10.2437 12.5813 10.395 12.375 10.56 12.2238C10.7112 12.0725 10.9313 11.825 11.0688 11.6187C11.2475 11.4262 11.3025 11.275 11.4125 11.055C11.5225 10.8212 11.4675 10.6287 11.385 10.4637C11.3025 10.3125 10.615 8.6075 10.3263 7.93375C10.0513 7.27375 9.77625 7.35625 9.55625 7.3425C9.36375 7.3425 9.14375 7.32875 8.91 7.32875Z" fill="white"/>
</svg>
